<svg width="192" height="146" viewBox="0 0 192 146" fill="none" xmlns="http://www.w3.org/2000/svg">
<g filter="url(#filter0_d_2_3)">
<path d="M44.5645 22C44.0645 20.4697 43.4055 19.0985 42.5873 17.8864C41.7842 16.6591 40.8221 15.6136 39.7009 14.75C38.5949 13.8864 37.3373 13.2273 35.9282 12.7727C34.5191 12.3182 32.9736 12.0909 31.2918 12.0909C28.5342 12.0909 26.0267 12.803 23.7691 14.2273C21.5115 15.6515 19.7161 17.75 18.3827 20.5227C17.0494 23.2955 16.3827 26.697 16.3827 30.7273C16.3827 34.7576 17.057 38.1591 18.4055 40.9318C19.7539 43.7045 21.5797 45.803 23.8827 47.2273C26.1858 48.6515 28.7767 49.3636 31.6555 49.3636C34.3221 49.3636 36.6706 48.7955 38.7009 47.6591C40.7464 46.5076 42.3373 44.8864 43.4736 42.7955C44.6252 40.6894 45.2009 38.2121 45.2009 35.3636L46.9282 35.7273H32.9282V30.7273H50.6555V35.7273C50.6555 39.5606 49.8373 42.8939 48.2009 45.7273C46.5797 48.5606 44.3373 50.7576 41.4736 52.3182C38.6252 53.8636 35.3524 54.6364 31.6555 54.6364C27.5342 54.6364 23.913 53.6667 20.7918 51.7273C17.6858 49.7879 15.2615 47.0303 13.5191 43.4545C11.7918 39.8788 10.9282 35.6364 10.9282 30.7273C10.9282 27.0455 11.4206 23.7348 12.4055 20.7955C13.4055 17.8409 14.8145 15.3258 16.6327 13.25C18.4509 11.1742 20.6024 9.58333 23.0873 8.47727C25.5721 7.37121 28.307 6.81818 31.2918 6.81818C33.7464 6.81818 36.0342 7.18939 38.1555 7.93182C40.2918 8.65909 42.1933 9.69697 43.86 11.0455C45.5418 12.3788 46.9433 13.9773 48.0645 15.8409C49.1858 17.6894 49.9585 19.7424 50.3827 22H44.5645ZM70.1743 54.8182C67.9622 54.8182 65.9546 54.4015 64.1516 53.5682C62.3486 52.7197 60.9167 51.5 59.8561 49.9091C58.7955 48.303 58.2652 46.3636 58.2652 44.0909C58.2652 42.0909 58.6592 40.4697 59.447 39.2273C60.2349 37.9697 61.288 36.9848 62.6061 36.2727C63.9243 35.5606 65.3789 35.0303 66.9698 34.6818C68.5758 34.3182 70.1895 34.0303 71.8107 33.8182C73.9319 33.5455 75.6516 33.3409 76.9698 33.2045C78.3031 33.053 79.2728 32.803 79.8789 32.4545C80.5001 32.1061 80.8107 31.5 80.8107 30.6364V30.4545C80.8107 28.2121 80.197 26.4697 78.9698 25.2273C77.7577 23.9848 75.9167 23.3636 73.447 23.3636C70.8864 23.3636 68.8789 23.9242 67.4243 25.0455C65.9698 26.1667 64.947 27.3636 64.3561 28.6364L59.2652 26.8182C60.1743 24.697 61.3864 23.0455 62.9016 21.8636C64.4319 20.6667 66.0986 19.8333 67.9016 19.3636C69.7198 18.8788 71.5077 18.6364 73.2652 18.6364C74.3864 18.6364 75.6743 18.7727 77.1289 19.0455C78.5986 19.303 80.0152 19.8409 81.3789 20.6591C82.7577 21.4773 83.9016 22.7121 84.8107 24.3636C85.7198 26.0152 86.1743 28.2273 86.1743 31V54H80.8107V49.2727H80.538C80.1743 50.0303 79.5683 50.8409 78.7198 51.7045C77.8713 52.5682 76.7425 53.303 75.3334 53.9091C73.9243 54.5152 72.2046 54.8182 70.1743 54.8182ZM70.9925 50C73.1137 50 74.9016 49.5833 76.3561 48.75C77.8258 47.9167 78.9319 46.8409 79.6743 45.5227C80.4319 44.2045 80.8107 42.8182 80.8107 41.3636V36.4545C80.5834 36.7273 80.0834 36.9773 79.3107 37.2045C78.5531 37.4167 77.6743 37.6061 76.6743 37.7727C75.6895 37.9242 74.7273 38.0606 73.788 38.1818C72.8637 38.2879 72.1137 38.3788 71.538 38.4545C70.144 38.6364 68.841 38.9318 67.6289 39.3409C66.4319 39.7348 65.4622 40.3333 64.7198 41.1364C63.9925 41.9242 63.6289 43 63.6289 44.3636C63.6289 46.2273 64.3183 47.6364 65.697 48.5909C67.091 49.5303 68.8561 50 70.9925 50ZM96.2841 54V19.0909H101.466V24.5455H101.92C102.648 22.6818 103.822 21.2348 105.443 20.2045C107.064 19.1591 109.011 18.6364 111.284 18.6364C113.587 18.6364 115.504 19.1591 117.034 20.2045C118.58 21.2348 119.784 22.6818 120.648 24.5455H121.011C121.905 22.7424 123.246 21.3106 125.034 20.25C126.822 19.1742 128.966 18.6364 131.466 18.6364C134.587 18.6364 137.14 19.6136 139.125 21.5682C141.11 23.5076 142.102 26.5303 142.102 30.6364V54H136.739V30.6364C136.739 28.0606 136.034 26.2197 134.625 25.1136C133.216 24.0076 131.557 23.4545 129.648 23.4545C127.193 23.4545 125.292 24.197 123.943 25.6818C122.595 27.1515 121.92 29.0152 121.92 31.2727V54H116.466V30.0909C116.466 28.1061 115.822 26.5076 114.534 25.2955C113.246 24.0682 111.587 23.4545 109.557 23.4545C108.163 23.4545 106.86 23.8258 105.648 24.5682C104.451 25.3106 103.481 26.3409 102.739 27.6591C102.011 28.9621 101.648 30.4697 101.648 32.1818V54H96.2841ZM166.865 54.7273C163.502 54.7273 160.6 53.9848 158.161 52.5C155.737 51 153.865 48.9091 152.547 46.2273C151.244 43.5303 150.593 40.3939 150.593 36.8182C150.593 33.2424 151.244 30.0909 152.547 27.3636C153.865 24.6212 155.699 22.4848 158.047 20.9545C160.411 19.4091 163.168 18.6364 166.32 18.6364C168.138 18.6364 169.934 18.9394 171.706 19.5455C173.479 20.1515 175.093 21.1364 176.547 22.5C178.002 23.8485 179.161 25.6364 180.025 27.8636C180.888 30.0909 181.32 32.8333 181.32 36.0909V38.3636H154.411V33.7273H175.865C175.865 31.7576 175.472 30 174.684 28.4545C173.911 26.9091 172.805 25.6894 171.365 24.7955C169.941 23.9015 168.259 23.4545 166.32 23.4545C164.184 23.4545 162.335 23.9848 160.775 25.0455C159.229 26.0909 158.04 27.4545 157.206 29.1364C156.373 30.8182 155.956 32.6212 155.956 34.5455V37.6364C155.956 40.2727 156.411 42.5076 157.32 44.3409C158.244 46.1591 159.525 47.5455 161.161 48.5C162.797 49.4394 164.699 49.9091 166.865 49.9091C168.275 49.9091 169.547 49.7121 170.684 49.3182C171.835 48.9091 172.828 48.303 173.661 47.5C174.494 46.6818 175.138 45.6667 175.593 44.4545L180.775 45.9091C180.229 47.6667 179.312 49.2121 178.025 50.5455C176.737 51.8636 175.146 52.8939 173.252 53.6364C171.358 54.3636 169.229 54.7273 166.865 54.7273ZM68.3353 107.727C68.3353 112.636 67.449 116.879 65.6762 120.455C63.9035 124.03 61.4717 126.788 58.3808 128.727C55.2899 130.667 51.7596 131.636 47.7899 131.636C43.8202 131.636 40.2899 130.667 37.199 128.727C34.1081 126.788 31.6762 124.03 29.9035 120.455C28.1308 116.879 27.2444 112.636 27.2444 107.727C27.2444 102.818 28.1308 98.5758 29.9035 95C31.6762 91.4242 34.1081 88.6667 37.199 86.7273C40.2899 84.7879 43.8202 83.8182 47.7899 83.8182C51.7596 83.8182 55.2899 84.7879 58.3808 86.7273C61.4717 88.6667 63.9035 91.4242 65.6762 95C67.449 98.5758 68.3353 102.818 68.3353 107.727ZM62.8808 107.727C62.8808 103.697 62.2066 100.295 60.8581 97.5227C59.5247 94.75 57.7141 92.6515 55.4262 91.2273C53.1535 89.803 50.6081 89.0909 47.7899 89.0909C44.9717 89.0909 42.4187 89.803 40.1308 91.2273C37.8581 92.6515 36.0475 94.75 34.699 97.5227C33.3656 100.295 32.699 103.697 32.699 107.727C32.699 111.758 33.3656 115.159 34.699 117.932C36.0475 120.705 37.8581 122.803 40.1308 124.227C42.4187 125.652 44.9717 126.364 47.7899 126.364C50.6081 126.364 53.1535 125.652 55.4262 124.227C57.7141 122.803 59.5247 120.705 60.8581 117.932C62.2066 115.159 62.8808 111.758 62.8808 107.727ZM105.951 96.0909L93.0417 131H87.5872L74.6781 96.0909H80.4962L90.1326 123.909H90.4962L100.133 96.0909H105.951ZM126.737 131.727C123.373 131.727 120.472 130.985 118.032 129.5C115.608 128 113.737 125.909 112.419 123.227C111.115 120.53 110.464 117.394 110.464 113.818C110.464 110.242 111.115 107.091 112.419 104.364C113.737 101.621 115.57 99.4848 117.919 97.9545C120.282 96.4091 123.04 95.6364 126.191 95.6364C128.009 95.6364 129.805 95.9394 131.578 96.5455C133.35 97.1515 134.964 98.1364 136.419 99.5C137.873 100.848 139.032 102.636 139.896 104.864C140.759 107.091 141.191 109.833 141.191 113.091V115.364H114.282V110.727H135.737C135.737 108.758 135.343 107 134.555 105.455C133.782 103.909 132.676 102.689 131.237 101.795C129.812 100.902 128.131 100.455 126.191 100.455C124.055 100.455 122.206 100.985 120.646 102.045C119.1 103.091 117.911 104.455 117.078 106.136C116.244 107.818 115.828 109.621 115.828 111.545V114.636C115.828 117.273 116.282 119.508 117.191 121.341C118.115 123.159 119.396 124.545 121.032 125.5C122.669 126.439 124.57 126.909 126.737 126.909C128.146 126.909 129.419 126.712 130.555 126.318C131.706 125.909 132.699 125.303 133.532 124.5C134.365 123.682 135.009 122.667 135.464 121.455L140.646 122.909C140.1 124.667 139.184 126.212 137.896 127.545C136.608 128.864 135.017 129.894 133.123 130.636C131.229 131.364 129.1 131.727 126.737 131.727ZM149.67 131V96.0909H154.852V101.364H155.216C155.852 99.6364 157.004 98.2348 158.67 97.1591C160.337 96.0833 162.216 95.5455 164.307 95.5455C164.701 95.5455 165.193 95.553 165.784 95.5682C166.375 95.5833 166.822 95.6061 167.125 95.6364V101.091C166.943 101.045 166.526 100.977 165.875 100.886C165.239 100.78 164.564 100.727 163.852 100.727C162.155 100.727 160.64 101.083 159.307 101.795C157.989 102.492 156.943 103.462 156.17 104.705C155.413 105.932 155.034 107.333 155.034 108.909V131H149.67Z" fill="black"/>
<path d="M44.5645 22L43.614 22.3106L43.8393 23H44.5645V22ZM42.5873 17.8864L41.7505 18.4339L41.7544 18.4399L41.7584 18.4458L42.5873 17.8864ZM39.7009 14.75L39.0855 15.5382L39.0907 15.5422L39.7009 14.75ZM35.9282 12.7727L36.2352 11.821L36.2352 11.821L35.9282 12.7727ZM18.3827 20.5227L19.2839 20.9561L19.2839 20.9561L18.3827 20.5227ZM18.4055 40.9318L17.5062 41.3692L17.5062 41.3692L18.4055 40.9318ZM23.8827 47.2273L23.3568 48.0778L23.8827 47.2273ZM38.7009 47.6591L39.1893 48.5317L39.1915 48.5305L38.7009 47.6591ZM43.4736 42.7955L42.5962 42.3157L42.595 42.3179L43.4736 42.7955ZM45.2009 35.3636L45.4069 34.3851L44.2009 34.1312V35.3636H45.2009ZM46.9282 35.7273V36.7273L47.1342 34.7487L46.9282 35.7273ZM32.9282 35.7273H31.9282V36.7273H32.9282V35.7273ZM32.9282 30.7273V29.7273H31.9282V30.7273H32.9282ZM50.6555 30.7273H51.6555V29.7273H50.6555V30.7273ZM48.2009 45.7273L47.335 45.2271L47.333 45.2306L48.2009 45.7273ZM41.4736 52.3182L41.9505 53.1971L41.9522 53.1963L41.4736 52.3182ZM20.7918 51.7273L20.2622 52.5755L20.264 52.5767L20.7918 51.7273ZM13.5191 43.4545L12.6186 43.8895L12.6201 43.8926L13.5191 43.4545ZM12.4055 20.7955L11.4582 20.4749L11.4573 20.4778L12.4055 20.7955ZM16.6327 13.25L17.385 13.9089L17.385 13.9089L16.6327 13.25ZM23.0873 8.47727L22.6806 7.56369L23.0873 8.47727ZM38.1555 7.93182L37.8251 8.87571L37.8332 8.87847L38.1555 7.93182ZM43.86 11.0455L43.231 11.8229L43.2388 11.8291L43.86 11.0455ZM48.0645 15.8409L47.2077 16.3564L47.2095 16.3595L48.0645 15.8409ZM50.3827 22V23H51.5882L51.3655 21.8153L50.3827 22ZM45.5151 21.6894C44.9892 20.0797 44.2912 18.6232 43.4161 17.3269L41.7584 18.4458C42.5198 19.5737 43.1399 20.8597 43.614 22.3106L45.5151 21.6894ZM43.4241 17.3388C42.562 16.0213 41.5242 14.8922 40.3111 13.9578L39.0907 15.5422C40.12 16.3351 41.0065 17.2968 41.7505 18.4339L43.4241 17.3388ZM40.3163 13.9618C39.1129 13.0221 37.7497 12.3096 36.2352 11.821L35.6212 13.7244C36.9249 14.145 38.0768 14.7506 39.0855 15.5382L40.3163 13.9618ZM36.2352 11.821C34.7145 11.3305 33.0639 11.0909 31.2918 11.0909V13.0909C32.8834 13.0909 34.3237 13.3059 35.6212 13.7244L36.2352 11.821ZM31.2918 11.0909C28.352 11.0909 25.6583 11.8531 23.2355 13.3815L24.3027 15.073C26.395 13.753 28.7165 13.0909 31.2918 13.0909V11.0909ZM23.2355 13.3815C20.796 14.9205 18.8836 17.1737 17.4815 20.0894L19.2839 20.9561C20.5486 18.3263 22.227 16.3825 24.3027 15.073L23.2355 13.3815ZM17.4815 20.0894C16.0663 23.0325 15.3827 26.5915 15.3827 30.7273H17.3827C17.3827 26.8024 18.0325 23.5585 19.2839 20.9561L17.4815 20.0894ZM15.3827 30.7273C15.3827 34.8644 16.0743 38.425 17.5062 41.3692L19.3047 40.4945C18.0396 37.8932 17.3827 34.6508 17.3827 30.7273H15.3827ZM17.5062 41.3692C18.9257 44.288 20.8712 46.5407 23.3568 48.0778L24.4087 46.3768C22.2882 45.0654 20.5822 43.1211 19.3047 40.4945L17.5062 41.3692ZM23.3568 48.0778C25.8279 49.606 28.6031 50.3636 31.6555 50.3636V48.3636C28.9502 48.3636 26.5436 47.697 24.4087 46.3768L23.3568 48.0778ZM31.6555 50.3636C34.4678 50.3636 36.9892 49.7631 39.1893 48.5317L38.2125 46.7865C36.3521 47.8278 34.1764 48.3636 31.6555 48.3636V50.3636ZM39.1915 48.5305C41.4031 47.2854 43.1275 45.5266 44.3523 43.273L42.595 42.3179C41.5471 44.2461 40.0896 45.7297 38.2103 46.7877L39.1915 48.5305ZM44.351 43.2752C45.5968 40.9968 46.2009 38.3485 46.2009 35.3636H44.2009C44.2009 38.0758 43.6535 40.382 42.5962 42.3157L44.351 43.2752ZM44.9949 36.3422L46.7222 36.7058L47.1342 34.7487L45.4069 34.3851L44.9949 36.3422ZM46.9282 34.7273H32.9282V36.7273H46.9282V34.7273ZM33.9282 35.7273V30.7273H31.9282V35.7273H33.9282ZM32.9282 31.7273H50.6555V29.7273H32.9282V31.7273ZM49.6555 30.7273V35.7273H51.6555V30.7273H49.6555ZM49.6555 35.7273C49.6555 39.4154 48.8695 42.5702 47.335 45.2271L49.0669 46.2274C50.8051 43.2177 51.6555 39.7058 51.6555 35.7273H49.6555ZM47.333 45.2306C45.8036 47.9034 43.696 49.9682 40.9951 51.4401L41.9522 53.1963C44.9786 51.5469 47.3558 49.2178 49.0689 46.2239L47.333 45.2306ZM40.9968 51.4392C38.3142 52.8947 35.2096 53.6364 31.6555 53.6364V55.6364C35.4953 55.6364 38.9361 54.8326 41.9505 53.1971L40.9968 51.4392ZM31.6555 53.6364C27.6975 53.6364 24.2637 52.7072 21.3196 50.8779L20.264 52.5767C23.5624 54.6261 27.371 55.6364 31.6555 55.6364V53.6364ZM21.3214 50.879C18.3882 49.0476 16.0856 46.4387 14.418 43.0165L12.6201 43.8926C14.4374 47.6219 16.9833 50.5282 20.2622 52.5755L21.3214 50.879ZM14.4195 43.0196C12.7714 39.6077 11.9282 35.5205 11.9282 30.7273H9.92818C9.92818 35.7522 10.8122 40.1499 12.6186 43.8895L14.4195 43.0196ZM11.9282 30.7273C11.9282 27.1337 12.4089 23.933 13.3536 21.1131L11.4573 20.4778C10.4324 23.5367 9.92818 26.9572 9.92818 30.7273H11.9282ZM13.3527 21.116C14.316 18.2698 15.664 15.8737 17.385 13.9089L15.8805 12.5911C13.9651 14.7778 12.4949 17.412 11.4582 20.4749L13.3527 21.116ZM17.385 13.9089C19.1092 11.9404 21.1433 10.4372 23.4939 9.39085L22.6806 7.56369C20.0615 8.72951 17.7926 10.4081 15.8805 12.5911L17.385 13.9089ZM23.4939 9.39085C25.8388 8.34711 28.4333 7.81818 31.2918 7.81818V5.81818C28.1806 5.81818 25.3055 6.39531 22.6806 7.56369L23.4939 9.39085ZM31.2918 7.81818C33.6442 7.81818 35.8194 8.17368 37.8251 8.87567L38.4858 6.98796C36.2491 6.2051 33.8485 5.81818 31.2918 5.81818V7.81818ZM37.8332 8.87847C39.8641 9.56983 41.6606 10.5522 43.231 11.8229L44.489 10.268C42.7261 8.8417 40.7196 7.74835 38.4777 6.98517L37.8332 8.87847ZM43.2388 11.8291C44.8253 13.0869 46.1474 14.5942 47.2077 16.3564L48.9214 15.3254C47.7392 13.3604 46.2583 11.6707 44.4812 10.2618L43.2388 11.8291ZM47.2095 16.3595C48.2646 18.099 48.9965 20.0377 49.3999 22.1847L51.3655 21.8153C50.9205 19.4471 50.1069 17.2798 48.9196 15.3223L47.2095 16.3595ZM50.3827 21H44.5645V23H50.3827V21ZM64.1516 53.5682L63.7258 54.473L63.732 54.4759L64.1516 53.5682ZM59.8561 49.9091L59.0217 50.4602L59.0241 50.4638L59.8561 49.9091ZM59.447 39.2273L60.2916 39.7628L60.2945 39.7582L59.447 39.2273ZM66.9698 34.6818L67.1838 35.6587L67.1906 35.6571L66.9698 34.6818ZM71.8107 33.8182L71.6832 32.8263L71.6809 32.8266L71.8107 33.8182ZM76.9698 33.2045L77.0727 34.1993L77.0827 34.1981L76.9698 33.2045ZM79.8789 32.4545L79.3896 31.5824L79.3804 31.5876L79.8789 32.4545ZM78.9698 25.2273L78.254 25.9256L78.2583 25.93L78.9698 25.2273ZM67.4243 25.0455L68.0348 25.8375L68.0348 25.8375L67.4243 25.0455ZM64.3561 28.6364L64.0198 29.5781L64.879 29.8849L65.2631 29.0575L64.3561 28.6364ZM59.2652 26.8182L58.3461 26.4243L57.927 27.4021L58.9289 27.7599L59.2652 26.8182ZM62.9016 21.8636L63.5166 22.6521L63.5177 22.6513L62.9016 21.8636ZM67.9016 19.3636L68.1537 20.3314L68.1593 20.3299L67.9016 19.3636ZM77.1289 19.0455L76.9446 20.0284L76.9562 20.0304L77.1289 19.0455ZM81.3789 20.6591L80.8644 21.5166L80.8685 21.5191L81.3789 20.6591ZM84.8107 24.3636L83.9346 24.8459L83.9346 24.8459L84.8107 24.3636ZM86.1743 54V55H87.1743V54H86.1743ZM80.8107 54H79.8107V55H80.8107V54ZM80.8107 49.2727H81.8107V48.2727H80.8107V49.2727ZM80.538 49.2727V48.2727H79.9087L79.6364 48.84L80.538 49.2727ZM78.7198 51.7045L79.4331 52.4054L79.4331 52.4054L78.7198 51.7045ZM75.3334 53.9091L74.9383 52.9905L74.9383 52.9905L75.3334 53.9091ZM76.3561 48.75L75.8629 47.8801L75.859 47.8823L76.3561 48.75ZM79.6743 45.5227L78.8073 45.0244L78.803 45.032L79.6743 45.5227ZM80.8107 36.4545H81.8107V33.6925L80.0425 35.8144L80.8107 36.4545ZM79.3107 37.2045L79.5803 38.1676L79.5928 38.1639L79.3107 37.2045ZM76.6743 37.7727L76.8264 38.7612L76.8387 38.7591L76.6743 37.7727ZM73.788 38.1818L73.902 39.1754L73.9159 39.1736L73.788 38.1818ZM71.538 38.4545L71.6673 39.4461L71.6684 39.446L71.538 38.4545ZM67.6289 39.3409L67.9415 40.2908L67.9486 40.2884L67.6289 39.3409ZM64.7198 41.1364L63.9855 40.4575L63.985 40.4581L64.7198 41.1364ZM65.697 48.5909L65.1278 49.4132L65.1382 49.4202L65.697 48.5909ZM70.1743 53.8182C68.0905 53.8182 66.2284 53.4264 64.5711 52.6604L63.732 54.4759C65.6809 55.3766 67.8339 55.8182 70.1743 55.8182V53.8182ZM64.5774 52.6634C62.9319 51.889 61.6434 50.7872 60.6882 49.3544L59.0241 50.4638C60.1901 52.2128 61.7653 53.5504 63.7258 54.473L64.5774 52.6634ZM60.6906 49.358C59.7563 47.9432 59.2652 46.2038 59.2652 44.0909H57.2652C57.2652 46.5235 57.8348 48.6629 59.0217 50.4602L60.6906 49.358ZM59.2652 44.0909C59.2652 42.2145 59.6356 40.7972 60.2916 39.7628L58.6025 38.6917C57.6827 40.1422 57.2652 41.9673 57.2652 44.0909H59.2652ZM60.2945 39.7582C60.9896 38.6486 61.9138 37.7833 63.0814 37.1525L62.1308 35.3929C60.6621 36.1864 59.4802 37.2908 58.5996 38.6964L60.2945 39.7582ZM63.0814 37.1525C64.3107 36.4885 65.6762 35.9889 67.1837 35.6587L66.7558 33.705C65.0816 34.0717 63.538 34.6327 62.1308 35.3929L63.0814 37.1525ZM67.1906 35.6571C68.7668 35.3003 70.35 35.0178 71.9404 34.8097L71.6809 32.8266C70.0289 33.0428 68.3849 33.3361 66.7489 33.7065L67.1906 35.6571ZM71.9382 34.81C74.0555 34.5378 75.7661 34.3344 77.0727 34.1992L76.8669 32.2099C75.5371 32.3474 73.8083 32.5531 71.6832 32.8263L71.9382 34.81ZM77.0827 34.1981C78.4499 34.0428 79.588 33.7753 80.3773 33.3214L79.3804 31.5876C78.9576 31.8307 78.1563 32.0633 76.8569 32.2109L77.0827 34.1981ZM80.3681 33.3267C81.3768 32.7608 81.8107 31.7708 81.8107 30.6364H79.8107C79.8107 31.2292 79.6233 31.4513 79.3896 31.5824L80.3681 33.3267ZM81.8107 30.6364V30.4545H79.8107V30.6364H81.8107ZM81.8107 30.4545C81.8107 28.0271 81.1418 26.0032 79.6812 24.5245L78.2583 25.93C79.2523 26.9362 79.8107 28.3971 79.8107 30.4545H81.8107ZM79.6856 24.5289C78.2176 23.0243 76.0709 22.3636 73.447 22.3636V24.3636C75.7626 24.3636 77.2977 24.9454 78.254 25.9256L79.6856 24.5289ZM73.447 22.3636C70.7509 22.3636 68.5007 22.9532 66.8138 24.2534L68.0348 25.8375C69.2571 24.8953 71.0219 24.3636 73.447 24.3636V22.3636ZM66.8138 24.2534C65.27 25.4435 64.1253 26.7589 63.4491 28.2153L65.2631 29.0575C65.7688 27.9683 66.6696 26.8899 68.0348 25.8375L66.8138 24.2534ZM64.6925 27.6946L59.6016 25.8764L58.9289 27.7599L64.0198 29.5781L64.6925 27.6946ZM60.1844 27.2121C61.0403 25.2149 62.1588 23.7112 63.5166 22.6521L62.2866 21.0751C60.614 22.3797 59.3083 24.179 58.3461 26.4243L60.1844 27.2121ZM63.5177 22.6513C64.9449 21.5349 66.4887 20.7651 68.1537 20.3313L67.6495 18.3959C65.7084 18.9016 63.9188 19.7984 62.2855 21.076L63.5177 22.6513ZM68.1593 20.3299C69.8993 19.8659 71.6006 19.6364 73.2652 19.6364V17.6364C71.4148 17.6364 69.5403 17.8917 67.6439 18.3974L68.1593 20.3299ZM73.2652 19.6364C74.3086 19.6364 75.5328 19.7636 76.9446 20.0283L77.3132 18.0626C75.8159 17.7818 74.4642 17.6364 73.2652 17.6364V19.6364ZM76.9562 20.0304C78.2974 20.2655 79.5989 20.7573 80.8644 21.5166L81.8934 19.8016C80.4315 18.9245 78.8998 18.3406 77.3015 18.0605L76.9562 20.0304ZM80.8685 21.5191C82.0688 22.2313 83.0963 23.3229 83.9346 24.8459L85.6867 23.8814C84.7069 22.1013 83.4465 20.7232 81.8892 19.7991L80.8685 21.5191ZM83.9346 24.8459C84.733 26.2963 85.1743 28.3221 85.1743 31H87.1743C87.1743 28.1324 86.7065 25.734 85.6867 23.8814L83.9346 24.8459ZM85.1743 31V54H87.1743V31H85.1743ZM86.1743 53H80.8107V55H86.1743V53ZM81.8107 54V49.2727H79.8107V54H81.8107ZM80.8107 48.2727H80.538V50.2727H80.8107V48.2727ZM79.6364 48.84C79.3363 49.4653 78.8088 50.187 78.0064 51.0037L79.4331 52.4054C80.3277 51.4948 81.0123 50.5953 81.4395 49.7055L79.6364 48.84ZM78.0064 51.0037C77.2696 51.7537 76.2588 52.4225 74.9383 52.9905L75.7285 54.8277C77.2262 54.1835 78.473 53.3827 79.4331 52.4054L78.0064 51.0037ZM74.9383 52.9905C73.6874 53.5285 72.1105 53.8182 70.1743 53.8182V55.8182C72.2987 55.8182 74.1613 55.5018 75.7285 54.8277L74.9383 52.9905ZM70.9925 51C73.2426 51 75.2122 50.5578 76.8532 49.6177L75.859 47.8823C74.5909 48.6088 72.9848 49 70.9925 49V51ZM76.8494 49.6199C78.4583 48.7076 79.7039 47.508 80.5456 46.0135L78.803 45.032C78.1599 46.1738 77.1934 47.1257 75.8629 47.8801L76.8494 49.6199ZM80.5413 46.021C81.3819 44.5584 81.8107 43.0011 81.8107 41.3636H79.8107C79.8107 42.6353 79.4819 43.8507 78.8073 45.0244L80.5413 46.021ZM81.8107 41.3636V36.4545H79.8107V41.3636H81.8107ZM80.0425 35.8144C80.0533 35.8014 80.0078 35.8573 79.818 35.9522C79.6385 36.0419 79.3806 36.1416 79.0285 36.2452L79.5928 38.1639C80.0135 38.0402 80.3919 37.9013 80.7124 37.741C81.0227 37.5859 81.3408 37.3804 81.5789 37.0947L80.0425 35.8144ZM79.0411 36.2416C78.3263 36.4417 77.484 36.624 76.5099 36.7863L76.8387 38.7591C77.8647 38.5881 78.7799 38.3916 79.5803 38.1675L79.0411 36.2416ZM76.5223 36.7844C75.545 36.9347 74.5909 37.0699 73.66 37.19L73.9159 39.1736C74.8638 39.0513 75.8339 38.9138 76.8264 38.7611L76.5223 36.7844ZM73.674 37.1883C72.7471 37.2947 71.991 37.3863 71.4075 37.4631L71.6684 39.446C72.2364 39.3713 72.9804 39.2811 73.902 39.1753L73.674 37.1883ZM71.4086 37.4629C69.9562 37.6524 68.5888 37.9615 67.3091 38.3934L67.9486 40.2884C69.0931 39.9021 70.3318 39.6203 71.6673 39.4461L71.4086 37.4629ZM67.3162 38.391C65.9828 38.8299 64.8597 39.5119 63.9855 40.4575L65.454 41.8152C66.0647 41.1547 66.881 40.6398 67.9415 40.2908L67.3162 38.391ZM63.985 40.4581C63.0445 41.4769 62.6289 42.8195 62.6289 44.3636H64.6289C64.6289 43.1805 64.9405 42.3716 65.4546 41.8146L63.985 40.4581ZM62.6289 44.3636C62.6289 46.5128 63.446 48.2487 65.1278 49.4131L66.2663 47.7687C65.1905 47.024 64.6289 45.9418 64.6289 44.3636H62.6289ZM65.1382 49.4202C66.7369 50.4975 68.7108 51 70.9925 51V49C69.0015 49 67.4451 48.5631 66.2559 47.7616L65.1382 49.4202ZM96.2841 54H95.2841V55H96.2841V54ZM96.2841 19.0909V18.0909H95.2841V19.0909H96.2841ZM101.466 19.0909H102.466V18.0909H101.466V19.0909ZM101.466 24.5455H100.466V25.5455H101.466V24.5455ZM101.92 24.5455V25.5455H102.604L102.852 24.909L101.92 24.5455ZM105.443 20.2045L105.98 21.0485L105.985 21.045L105.443 20.2045ZM117.034 20.2045L116.47 21.0303L116.479 21.0366L117.034 20.2045ZM120.648 24.5455L119.74 24.9659L120.009 25.5455H120.648V24.5455ZM121.011 24.5455V25.5455H121.632L121.907 24.9897L121.011 24.5455ZM125.034 20.25L125.544 21.1101L125.55 21.1069L125.034 20.25ZM139.125 21.5682L138.423 22.2807L138.426 22.2834L139.125 21.5682ZM142.102 54V55H143.102V54H142.102ZM136.739 54H135.739V55H136.739V54ZM134.625 25.1136L134.008 25.9002L134.008 25.9002L134.625 25.1136ZM123.943 25.6818L124.68 26.3579L124.683 26.3541L123.943 25.6818ZM121.92 54V55H122.92V54H121.92ZM116.466 54H115.466V55H116.466V54ZM114.534 25.2955L113.844 26.0194L113.849 26.0237L114.534 25.2955ZM105.648 24.5682L105.125 23.7154L105.121 23.7184L105.648 24.5682ZM102.739 27.6591L101.867 27.1683L101.865 27.1717L102.739 27.6591ZM101.648 54V55H102.648V54H101.648ZM97.2841 54V19.0909H95.2841V54H97.2841ZM96.2841 20.0909H101.466V18.0909H96.2841V20.0909ZM100.466 19.0909V24.5455H102.466V19.0909H100.466ZM101.466 25.5455H101.92V23.5455H101.466V25.5455ZM102.852 24.909C103.505 23.2347 104.546 21.9598 105.98 21.0485L104.907 19.3606C103.098 20.5099 101.79 22.129 100.989 24.1819L102.852 24.909ZM105.985 21.045C107.418 20.1211 109.169 19.6364 111.284 19.6364V17.6364C108.854 17.6364 106.711 18.1971 104.901 19.3641L105.985 21.045ZM111.284 19.6364C113.435 19.6364 115.142 20.1232 116.47 21.0303L117.598 19.3788C115.865 18.195 113.739 17.6364 111.284 17.6364V19.6364ZM116.479 21.0366C117.856 21.9542 118.946 23.2511 119.74 24.9659L121.555 24.125C120.622 22.1125 119.303 20.5155 117.589 19.3725L116.479 21.0366ZM120.648 25.5455H121.011V23.5455H120.648V25.5455ZM121.907 24.9897C122.713 23.3655 123.917 22.0756 125.544 21.1101L124.524 19.3899C122.576 20.5456 121.098 22.1194 120.115 24.1013L121.907 24.9897ZM125.55 21.1069C127.154 20.1418 129.111 19.6364 131.466 19.6364V17.6364C128.82 17.6364 126.49 18.2067 124.519 19.3931L125.55 21.1069ZM131.466 19.6364C134.359 19.6364 136.649 20.5332 138.423 22.2807L139.827 20.8557C137.632 18.694 134.815 17.6364 131.466 17.6364V19.6364ZM138.426 22.2834C140.143 23.9605 141.102 26.6708 141.102 30.6364H143.102C143.102 26.3898 142.077 23.0546 139.824 20.8529L138.426 22.2834ZM141.102 30.6364V54H143.102V30.6364H141.102ZM142.102 53H136.739V55H142.102V53ZM137.739 54V30.6364H135.739V54H137.739ZM137.739 30.6364C137.739 27.8942 136.985 25.6952 135.242 24.327L134.008 25.9002C135.083 26.7442 135.739 28.227 135.739 30.6364H137.739ZM135.242 24.327C133.645 23.0733 131.765 22.4545 129.648 22.4545V24.4545C131.349 24.4545 132.787 24.9419 134.008 25.9002L135.242 24.327ZM129.648 22.4545C126.979 22.4545 124.782 23.2704 123.203 25.0095L124.683 26.3541C125.801 25.1236 127.407 24.4545 129.648 24.4545V22.4545ZM123.206 25.0057C121.666 26.6845 120.92 28.8003 120.92 31.2727H122.92C122.92 29.23 123.523 27.6185 124.68 26.3579L123.206 25.0057ZM120.92 31.2727V54H122.92V31.2727H120.92ZM121.92 53H116.466V55H121.92V53ZM117.466 54V30.0909H115.466V54H117.466ZM117.466 30.0909C117.466 27.8675 116.734 25.9924 115.219 24.5673L113.849 26.0237C114.91 27.0227 115.466 28.3446 115.466 30.0909H117.466ZM115.224 24.5715C113.724 23.1417 111.805 22.4545 109.557 22.4545V24.4545C111.369 24.4545 112.769 24.9946 113.844 26.0194L115.224 24.5715ZM109.557 22.4545C107.975 22.4545 106.491 22.8787 105.125 23.7154L106.17 25.4209C107.228 24.7728 108.351 24.4545 109.557 24.4545V22.4545ZM105.121 23.7184C103.77 24.5561 102.686 25.7146 101.867 27.1684L103.61 28.1498C104.276 26.9672 105.132 26.0651 106.175 25.418L105.121 23.7184ZM101.865 27.1717C101.043 28.6445 100.648 30.3245 100.648 32.1818H102.648C102.648 30.6149 102.979 29.2798 103.612 28.1465L101.865 27.1717ZM100.648 32.1818V54H102.648V32.1818H100.648ZM101.648 53H96.2841V55H101.648V53ZM158.161 52.5L157.635 53.3504L157.641 53.3542L158.161 52.5ZM152.547 46.2273L151.647 46.6623L151.65 46.6684L152.547 46.2273ZM152.547 27.3636L151.646 26.9304L151.645 26.9325L152.547 27.3636ZM158.047 20.9545L158.593 21.7924L158.595 21.7915L158.047 20.9545ZM171.706 19.5455L172.03 18.5992L172.03 18.5992L171.706 19.5455ZM176.547 22.5L175.863 23.2295L175.867 23.2333L176.547 22.5ZM180.025 27.8636L180.957 27.5021L180.957 27.5021L180.025 27.8636ZM181.32 38.3636V39.3636H182.32V38.3636H181.32ZM154.411 38.3636H153.411V39.3636H154.411V38.3636ZM154.411 33.7273V32.7273H153.411V33.7273H154.411ZM175.865 33.7273V34.7273H176.865V33.7273H175.865ZM174.684 28.4545L173.789 28.9018L173.793 28.9087L174.684 28.4545ZM171.365 24.7955L170.834 25.6424L170.838 25.645L171.365 24.7955ZM160.775 25.0455L161.335 25.8737L161.337 25.8725L160.775 25.0455ZM157.206 29.1364L156.31 28.6924L156.31 28.6924L157.206 29.1364ZM157.32 44.3409L156.424 44.7852L156.429 44.7941L157.32 44.3409ZM161.161 48.5L160.657 49.3638L160.663 49.3673L161.161 48.5ZM170.684 49.3182L171.011 50.263L171.018 50.2605L170.684 49.3182ZM173.661 47.5L174.355 48.2201L174.362 48.2136L173.661 47.5ZM175.593 44.4545L175.863 43.4918L174.979 43.2436L174.656 44.1034L175.593 44.4545ZM180.775 45.9091L181.73 46.2055L182.034 45.224L181.045 44.9463L180.775 45.9091ZM178.025 50.5455L178.74 51.2443L178.744 51.2402L178.025 50.5455ZM173.252 53.6364L173.61 54.5699L173.617 54.5674L173.252 53.6364ZM166.865 53.7273C163.652 53.7273 160.938 53.0195 158.681 51.6458L157.641 53.3542C160.263 54.9502 163.351 55.7273 166.865 55.7273V53.7273ZM158.687 51.6496C156.43 50.2533 154.684 48.3079 153.445 45.7862L151.65 46.6684C153.047 49.5103 155.043 51.7467 157.635 53.3504L158.687 51.6496ZM153.448 45.7922C152.222 43.2547 151.593 40.2722 151.593 36.8182H149.593C149.593 40.5157 150.267 43.8059 151.647 46.6623L153.448 45.7922ZM151.593 36.8182C151.593 33.3646 152.222 30.3649 153.45 27.7947L151.645 26.9325C150.267 29.8169 149.593 33.1203 149.593 36.8182H151.593ZM153.449 27.7969C154.695 25.2047 156.411 23.2143 158.593 21.7924L157.501 20.1167C154.987 21.7553 153.036 24.0378 151.646 26.9304L153.449 27.7969ZM158.595 21.7915C160.777 20.3645 163.34 19.6364 166.32 19.6364V17.6364C162.997 17.6364 160.045 18.4537 157.5 20.1176L158.595 21.7915ZM166.32 19.6364C168.025 19.6364 169.711 19.9201 171.383 20.4917L172.03 18.5992C170.156 17.9587 168.252 17.6364 166.32 17.6364V19.6364ZM171.383 20.4917C173.013 21.049 174.505 21.9565 175.863 23.2295L177.231 21.7705C175.68 20.3162 173.945 19.2541 172.03 18.5992L171.383 20.4917ZM175.867 23.2333C177.19 24.4597 178.272 26.1108 179.092 28.2252L180.957 27.5021C180.049 25.1619 178.813 23.2373 177.227 21.7667L175.867 23.2333ZM179.092 28.2252C179.898 30.3036 180.32 32.915 180.32 36.0909H182.32C182.32 32.7517 181.878 29.8783 180.957 27.5021L179.092 28.2252ZM180.32 36.0909V38.3636H182.32V36.0909H180.32ZM181.32 37.3636H154.411V39.3636H181.32V37.3636ZM155.411 38.3636V33.7273H153.411V38.3636H155.411ZM154.411 34.7273H175.865V32.7273H154.411V34.7273ZM176.865 33.7273C176.865 31.6212 176.443 29.7045 175.575 28.0004L173.793 28.9087C174.5 30.2955 174.865 31.8939 174.865 33.7273H176.865ZM175.578 28.0073C174.724 26.2999 173.493 24.9395 171.893 23.946L170.838 25.645C172.117 26.4393 173.097 27.5183 173.789 28.9018L175.578 28.0073ZM171.897 23.9485C170.29 22.94 168.418 22.4545 166.32 22.4545V24.4545C168.101 24.4545 169.592 24.8631 170.834 25.6424L171.897 23.9485ZM166.32 22.4545C164.011 22.4545 161.96 23.0306 160.212 24.2184L161.337 25.8725C162.71 24.9391 164.357 24.4545 166.32 24.4545V22.4545ZM160.214 24.2172C158.525 25.3601 157.22 26.8566 156.31 28.6924L158.102 29.5803C158.859 28.0525 159.934 26.8217 161.335 25.8737L160.214 24.2172ZM156.31 28.6924C155.407 30.5158 154.956 32.4712 154.956 34.5455H156.956C156.956 32.7712 157.339 31.1206 158.102 29.5803L156.31 28.6924ZM154.956 34.5455V37.6364H156.956V34.5455H154.956ZM154.956 37.6364C154.956 40.3839 155.43 42.7798 156.424 44.7852L158.216 43.8967C157.392 42.2353 156.956 40.1616 156.956 37.6364H154.956ZM156.429 44.7941C157.433 46.7698 158.842 48.305 160.657 49.3638L161.665 47.6362C160.207 46.7859 159.056 45.5484 158.211 43.8878L156.429 44.7941ZM160.663 49.3673C162.472 50.4058 164.55 50.9091 166.865 50.9091V48.9091C164.847 48.9091 163.122 48.473 161.659 47.6327L160.663 49.3673ZM166.865 50.9091C168.367 50.9091 169.753 50.6991 171.011 50.263L170.356 48.3733C169.341 48.7251 168.182 48.9091 166.865 48.9091V50.9091ZM171.018 50.2605C172.296 49.8064 173.413 49.1274 174.355 48.2201L172.967 46.7799C172.242 47.4787 171.374 48.0117 170.349 48.3759L171.018 50.2605ZM174.362 48.2136C175.31 47.2826 176.029 46.1394 176.529 44.8057L174.656 44.1034C174.247 45.1939 173.679 46.0811 172.96 46.7864L174.362 48.2136ZM175.322 45.4173L180.504 46.8719L181.045 44.9463L175.863 43.4918L175.322 45.4173ZM179.819 45.6127C179.321 47.2197 178.485 48.629 177.305 49.8507L178.744 51.2402C180.14 49.7952 181.137 48.1136 181.73 46.2055L179.819 45.6127ZM177.309 49.8466C176.13 51.0534 174.663 52.0092 172.887 52.7053L173.617 54.5674C175.629 53.7787 177.343 52.6739 178.74 51.2443L177.309 49.8466ZM172.893 52.7028C171.131 53.3796 169.126 53.7273 166.865 53.7273V55.7273C169.332 55.7273 171.585 55.3477 173.61 54.5699L172.893 52.7028ZM65.6762 120.455L64.7803 120.01L64.7803 120.01L65.6762 120.455ZM58.3808 128.727L58.9123 129.574L58.9123 129.574L58.3808 128.727ZM37.199 128.727L36.6675 129.574L36.6675 129.574L37.199 128.727ZM29.9035 120.455L30.7995 120.01L30.7995 120.01L29.9035 120.455ZM29.9035 95L29.0076 94.5558L29.9035 95ZM58.3808 86.7273L58.9123 85.8802L58.9123 85.8802L58.3808 86.7273ZM65.6762 95L64.7803 95.4442L64.7803 95.4442L65.6762 95ZM60.8581 97.5227L59.9568 97.9561L59.9588 97.9601L60.8581 97.5227ZM55.4262 91.2273L54.8952 92.0746L54.8978 92.0762L55.4262 91.2273ZM40.1308 91.2273L39.6023 90.3783L39.5998 90.3799L40.1308 91.2273ZM34.699 97.5227L33.7997 97.0854L33.7978 97.0894L34.699 97.5227ZM34.699 117.932L33.7978 118.365L33.7997 118.369L34.699 117.932ZM40.1308 124.227L39.5998 125.075L39.6023 125.076L40.1308 124.227ZM55.4262 124.227L54.8978 123.378L54.8952 123.38L55.4262 124.227ZM60.8581 117.932L59.9588 117.494L59.9569 117.498L60.8581 117.932ZM67.3353 107.727C67.3353 112.517 66.4707 116.601 64.7803 120.01L66.5722 120.899C68.4273 117.157 69.3353 112.756 69.3353 107.727H67.3353ZM64.7803 120.01C63.0816 123.437 60.7694 126.048 57.8493 127.88L58.9123 129.574C62.174 127.528 64.7254 124.624 66.5722 120.899L64.7803 120.01ZM57.8493 127.88C54.9316 129.711 51.5887 130.636 47.7899 130.636V132.636C51.9304 132.636 55.6482 131.622 58.9123 129.574L57.8493 127.88ZM47.7899 130.636C43.991 130.636 40.6482 129.711 37.7305 127.88L36.6675 129.574C39.9316 131.622 43.6493 132.636 47.7899 132.636V130.636ZM37.7305 127.88C34.8104 126.048 32.4982 123.437 30.7995 120.01L29.0076 120.899C30.8543 124.624 33.4057 127.528 36.6675 129.574L37.7305 127.88ZM30.7995 120.01C29.1091 116.601 28.2444 112.517 28.2444 107.727H26.2444C26.2444 112.756 27.1525 117.157 29.0076 120.899L30.7995 120.01ZM28.2444 107.727C28.2444 102.937 29.1091 98.8538 30.7995 95.4442L29.0076 94.5558C27.1525 98.2978 26.2444 102.699 26.2444 107.727H28.2444ZM30.7995 95.4442C32.4982 92.0177 34.8104 89.4065 37.7305 87.5743L36.6675 85.8802C33.4057 87.9268 30.8543 90.8308 29.0076 94.5558L30.7995 95.4442ZM37.7305 87.5743C40.6482 85.7436 43.991 84.8182 47.7899 84.8182V82.8182C43.6493 82.8182 39.9316 83.8321 36.6675 85.8802L37.7305 87.5743ZM47.7899 84.8182C51.5887 84.8182 54.9316 85.7436 57.8493 87.5743L58.9123 85.8802C55.6482 83.8321 51.9304 82.8182 47.7899 82.8182V84.8182ZM57.8493 87.5743C60.7694 89.4065 63.0816 92.0177 64.7803 95.4442L66.5722 94.5558C64.7254 90.8308 62.174 87.9268 58.9123 85.8802L57.8493 87.5743ZM64.7803 95.4442C66.4707 98.8538 67.3353 102.937 67.3353 107.727H69.3353C69.3353 102.699 68.4273 98.2978 66.5722 94.5558L64.7803 95.4442ZM63.8808 107.727C63.8808 103.59 63.1892 100.03 61.7574 97.0854L59.9588 97.9601C61.2239 100.561 61.8808 103.804 61.8808 107.727H63.8808ZM61.7593 97.0894C60.3556 94.1704 58.4257 91.9165 55.9547 90.3783L54.8978 92.0762C57.0026 93.3865 58.6938 95.3296 59.9569 97.9561L61.7593 97.0894ZM55.9573 90.3799C53.5171 88.8508 50.7859 88.0909 47.7899 88.0909V90.0909C50.4302 90.0909 52.7899 90.7553 54.8952 92.0746L55.9573 90.3799ZM47.7899 88.0909C44.7938 88.0909 42.0562 88.8507 39.6023 90.3783L40.6593 92.0762C42.7811 90.7553 45.1496 90.0909 47.7899 90.0909V88.0909ZM39.5998 90.3799C37.1457 91.9178 35.2176 94.1699 33.7997 97.0854L35.5983 97.9601C36.8773 95.3301 38.5704 93.3852 40.6618 92.0746L39.5998 90.3799ZM33.7978 97.0894C32.3825 100.032 31.699 103.592 31.699 107.727H33.699C33.699 103.802 34.3488 100.558 35.6002 97.9561L33.7978 97.0894ZM31.699 107.727C31.699 111.863 32.3825 115.422 33.7978 118.365L35.6002 117.498C34.3488 114.896 33.699 111.652 33.699 107.727H31.699ZM33.7997 118.369C35.2176 121.285 37.1457 123.537 39.5998 125.075L40.6618 123.38C38.5704 122.069 36.8773 120.124 35.5983 117.494L33.7997 118.369ZM39.6023 125.076C42.0562 126.604 44.7938 127.364 47.7899 127.364V125.364C45.1496 125.364 42.7811 124.699 40.6593 123.378L39.6023 125.076ZM47.7899 127.364C50.7859 127.364 53.5171 126.604 55.9573 125.075L54.8952 123.38C52.7899 124.699 50.4302 125.364 47.7899 125.364V127.364ZM55.9547 125.076C58.4257 123.538 60.3556 121.284 61.7593 118.365L59.9569 117.498C58.6938 120.125 57.0026 122.068 54.8978 123.378L55.9547 125.076ZM61.7574 118.369C63.1892 115.425 63.8808 111.864 63.8808 107.727H61.8808C61.8808 111.651 61.2239 114.893 59.9588 117.494L61.7574 118.369ZM105.951 96.0909L106.889 96.4377L107.387 95.0909H105.951V96.0909ZM93.0417 131V132H93.7381L93.9796 131.347L93.0417 131ZM87.5872 131L86.6492 131.347L86.8908 132H87.5872V131ZM74.6781 96.0909V95.0909H73.2421L73.7401 96.4377L74.6781 96.0909ZM80.4962 96.0909L81.4412 95.7636L81.2081 95.0909H80.4962V96.0909ZM90.1326 123.909L89.1877 124.236L89.4207 124.909H90.1326V123.909ZM90.4962 123.909V124.909H91.2081L91.4412 124.236L90.4962 123.909ZM100.133 96.0909V95.0909H99.4207L99.1877 95.7636L100.133 96.0909ZM105.013 95.7441L92.1038 130.653L93.9796 131.347L106.889 96.4377L105.013 95.7441ZM93.0417 130H87.5872V132H93.0417V130ZM88.5251 130.653L75.616 95.7441L73.7401 96.4377L86.6492 131.347L88.5251 130.653ZM74.6781 97.0909H80.4962V95.0909H74.6781V97.0909ZM79.5513 96.4182L89.1877 124.236L91.0775 123.582L81.4412 95.7636L79.5513 96.4182ZM90.1326 124.909H90.4962V122.909H90.1326V124.909ZM91.4412 124.236L101.078 96.4182L99.1877 95.7636L89.5513 123.582L91.4412 124.236ZM100.133 97.0909H105.951V95.0909H100.133V97.0909ZM118.032 129.5L117.506 130.35L117.512 130.354L118.032 129.5ZM112.419 123.227L111.518 123.662L111.521 123.668L112.419 123.227ZM112.419 104.364L111.517 103.93L111.516 103.933L112.419 104.364ZM117.919 97.9545L118.464 98.7924L118.466 98.7915L117.919 97.9545ZM131.578 96.5455L131.901 95.5992L131.901 95.5992L131.578 96.5455ZM136.419 99.5L135.735 100.23L135.739 100.233L136.419 99.5ZM139.896 104.864L140.828 104.502L140.828 104.502L139.896 104.864ZM141.191 115.364V116.364H142.191V115.364H141.191ZM114.282 115.364H113.282V116.364H114.282V115.364ZM114.282 110.727V109.727H113.282V110.727H114.282ZM135.737 110.727V111.727H136.737V110.727H135.737ZM134.555 105.455L133.66 105.902L133.664 105.909L134.555 105.455ZM131.237 101.795L130.705 102.642L130.709 102.645L131.237 101.795ZM120.646 102.045L121.206 102.874L121.208 102.873L120.646 102.045ZM117.078 106.136L116.182 105.692L116.182 105.692L117.078 106.136ZM117.191 121.341L116.295 121.785L116.3 121.794L117.191 121.341ZM121.032 125.5L120.528 126.364L120.534 126.367L121.032 125.5ZM130.555 126.318L130.882 127.263L130.89 127.26L130.555 126.318ZM133.532 124.5L134.226 125.22L134.233 125.214L133.532 124.5ZM135.464 121.455L135.734 120.492L134.85 120.244L134.528 121.103L135.464 121.455ZM140.646 122.909L141.601 123.205L141.905 122.224L140.916 121.946L140.646 122.909ZM137.896 127.545L138.611 128.244L138.615 128.24L137.896 127.545ZM133.123 130.636L133.482 131.57L133.488 131.567L133.123 130.636ZM126.737 130.727C123.523 130.727 120.809 130.019 118.552 128.646L117.512 130.354C120.134 131.95 123.223 132.727 126.737 132.727V130.727ZM118.558 128.65C116.302 127.253 114.555 125.308 113.316 122.786L111.521 123.668C112.918 126.51 114.914 128.747 117.506 130.35L118.558 128.65ZM113.319 122.792C112.093 120.255 111.464 117.272 111.464 113.818H109.464C109.464 117.516 110.138 120.806 111.518 123.662L113.319 122.792ZM111.464 113.818C111.464 110.365 112.093 107.365 113.321 104.795L111.516 103.933C110.138 106.817 109.464 110.12 109.464 113.818H111.464ZM113.32 104.797C114.566 102.205 116.282 100.214 118.464 98.7924L117.373 97.1167C114.858 98.7553 112.908 101.038 111.517 103.93L113.32 104.797ZM118.466 98.7915C120.648 97.3645 123.211 96.6364 126.191 96.6364V94.6364C122.869 94.6364 119.916 95.4537 117.371 97.1176L118.466 98.7915ZM126.191 96.6364C127.896 96.6364 129.582 96.9201 131.254 97.4917L131.901 95.5992C130.027 94.9587 128.123 94.6364 126.191 94.6364V96.6364ZM131.254 97.4917C132.884 98.049 134.377 98.9565 135.735 100.23L137.102 98.7705C135.551 97.3162 133.816 96.2541 131.901 95.5992L131.254 97.4917ZM135.739 100.233C137.061 101.46 138.144 103.111 138.963 105.225L140.828 104.502C139.921 102.162 138.685 100.237 137.098 98.7667L135.739 100.233ZM138.963 105.225C139.769 107.304 140.191 109.915 140.191 113.091H142.191C142.191 109.752 141.75 106.878 140.828 104.502L138.963 105.225ZM140.191 113.091V115.364H142.191V113.091H140.191ZM141.191 114.364H114.282V116.364H141.191V114.364ZM115.282 115.364V110.727H113.282V115.364H115.282ZM114.282 111.727H135.737V109.727H114.282V111.727ZM136.737 110.727C136.737 108.621 136.315 106.704 135.446 105L133.664 105.909C134.371 107.296 134.737 108.894 134.737 110.727H136.737ZM135.449 105.007C134.596 103.3 133.364 101.939 131.764 100.946L130.709 102.645C131.988 103.439 132.969 104.518 133.66 105.902L135.449 105.007ZM131.768 100.948C130.162 99.94 128.289 99.4545 126.191 99.4545V101.455C127.972 101.455 129.463 101.863 130.705 102.642L131.768 100.948ZM126.191 99.4545C123.882 99.4545 121.831 100.031 120.084 101.218L121.208 102.873C122.581 101.939 124.228 101.455 126.191 101.455V99.4545ZM120.085 101.217C118.396 102.36 117.091 103.857 116.182 105.692L117.974 106.58C118.731 105.053 119.805 103.822 121.206 102.874L120.085 101.217ZM116.182 105.692C115.278 107.516 114.828 109.471 114.828 111.545H116.828C116.828 109.771 117.21 108.121 117.974 106.58L116.182 105.692ZM114.828 111.545V114.636H116.828V111.545H114.828ZM114.828 114.636C114.828 117.384 115.301 119.78 116.295 121.785L118.087 120.897C117.263 119.235 116.828 117.162 116.828 114.636H114.828ZM116.3 121.794C117.304 123.77 118.713 125.305 120.528 126.364L121.536 124.636C120.078 123.786 118.927 122.548 118.083 120.888L116.3 121.794ZM120.534 126.367C122.343 127.406 124.422 127.909 126.737 127.909V125.909C124.718 125.909 122.994 125.473 121.53 124.633L120.534 126.367ZM126.737 127.909C128.239 127.909 129.624 127.699 130.882 127.263L130.227 125.373C129.213 125.725 128.053 125.909 126.737 125.909V127.909ZM130.89 127.26C132.168 126.806 133.285 126.127 134.226 125.22L132.838 123.78C132.113 124.479 131.245 125.012 130.22 125.376L130.89 127.26ZM134.233 125.214C135.181 124.283 135.9 123.139 136.4 121.806L134.528 121.103C134.119 122.194 133.55 123.081 132.832 123.786L134.233 125.214ZM135.194 122.417L140.376 123.872L140.916 121.946L135.734 120.492L135.194 122.417ZM139.691 122.613C139.192 124.22 138.357 125.629 137.177 126.851L138.615 128.24C140.011 126.795 141.009 125.114 141.601 123.205L139.691 122.613ZM137.181 126.847C136.002 128.053 134.534 129.009 132.758 129.705L133.488 131.567C135.5 130.779 137.214 129.674 138.611 128.244L137.181 126.847ZM132.765 129.703C131.002 130.38 128.998 130.727 126.737 130.727V132.727C129.203 132.727 131.456 132.348 133.482 131.57L132.765 129.703ZM149.67 131H148.67V132H149.67V131ZM149.67 96.0909V95.0909H148.67V96.0909H149.67ZM154.852 96.0909H155.852V95.0909H154.852V96.0909ZM154.852 101.364H153.852V102.364H154.852V101.364ZM155.216 101.364V102.364H155.913L156.154 101.709L155.216 101.364ZM158.67 97.1591L158.128 96.3189L158.128 96.3189L158.67 97.1591ZM167.125 95.6364H168.125V94.7314L167.224 94.6413L167.125 95.6364ZM167.125 101.091L166.882 102.061L168.125 102.372V101.091H167.125ZM165.875 100.886L165.71 101.873L165.724 101.875L165.737 101.877L165.875 100.886ZM159.307 101.795L159.774 102.679L159.778 102.678L159.307 101.795ZM156.17 104.705L155.321 104.176L155.319 104.179L156.17 104.705ZM155.034 131V132H156.034V131H155.034ZM150.67 131V96.0909H148.67V131H150.67ZM149.67 97.0909H154.852V95.0909H149.67V97.0909ZM153.852 96.0909V101.364H155.852V96.0909H153.852ZM154.852 102.364H155.216V100.364H154.852V102.364ZM156.154 101.709C156.71 100.202 157.713 98.9672 159.213 97.9993L158.128 96.3189C156.294 97.5025 154.995 99.0711 154.277 101.018L156.154 101.709ZM159.213 97.9993C160.709 97.0336 162.397 96.5455 164.307 96.5455V94.5455C162.034 94.5455 159.965 95.1331 158.128 96.3189L159.213 97.9993ZM164.307 96.5455C164.689 96.5455 165.172 96.5528 165.758 96.5679L165.81 94.5685C165.214 94.5532 164.712 94.5455 164.307 94.5455V96.5455ZM165.758 96.5679C166.343 96.5828 166.76 96.6049 167.025 96.6314L167.224 94.6413C166.884 94.6072 166.407 94.5838 165.81 94.5685L165.758 96.5679ZM166.125 95.6364V101.091H168.125V95.6364H166.125ZM167.367 100.121C167.124 100.06 166.65 99.9848 166.013 99.896L165.737 101.877C166.403 101.97 166.763 102.031 166.882 102.061L167.367 100.121ZM166.039 99.9C165.343 99.784 164.614 99.7273 163.852 99.7273V101.727C164.515 101.727 165.134 101.777 165.71 101.873L166.039 99.9ZM163.852 99.7273C162.011 99.7273 160.331 100.115 158.836 100.913L159.778 102.678C160.949 102.052 162.299 101.727 163.852 101.727V99.7273ZM158.839 100.911C157.368 101.689 156.189 102.781 155.321 104.176L157.019 105.233C157.697 104.144 158.609 103.295 159.774 102.679L158.839 100.911ZM155.319 104.179C154.455 105.579 154.034 107.166 154.034 108.909H156.034C156.034 107.501 156.37 106.285 157.021 105.23L155.319 104.179ZM154.034 108.909V131H156.034V108.909H154.034ZM155.034 130H149.67V132H155.034V130Z" fill="#00EDFC"/>
</g>
<defs>
<filter id="filter0_d_2_3" x="0.928192" y="0.81818" width="190.392" height="144.909" filterUnits="userSpaceOnUse" color-interpolation-filters="sRGB">
<feFlood flood-opacity="0" result="BackgroundImageFix"/>
<feColorMatrix in="SourceAlpha" type="matrix" values="0 0 0 0 0 0 0 0 0 0 0 0 0 0 0 0 0 0 127 0" result="hardAlpha"/>
<feOffset dy="4"/>
<feGaussianBlur stdDeviation="5"/>
<feComposite in2="hardAlpha" operator="out"/>
<feColorMatrix type="matrix" values="0 0 0 0 0 0 0 0 0 0 0 0 0 0 0 0 0 0 0.25 0"/>
<feBlend mode="normal" in2="BackgroundImageFix" result="effect1_dropShadow_2_3"/>
<feBlend mode="normal" in="SourceGraphic" in2="effect1_dropShadow_2_3" result="shape"/>
</filter>
</defs>
</svg>
