<svg width="307" height="82" viewBox="0 0 307 82" fill="none" xmlns="http://www.w3.org/2000/svg">
<g filter="url(#filter0_d_2_3)">
<path d="M50.1234 22H44.487C44.1537 20.3788 43.5704 18.9545 42.737 17.7273C41.9189 16.5 40.9189 15.4697 39.737 14.6364C38.5704 13.7879 37.2749 13.1515 35.8507 12.7273C34.4264 12.303 32.9416 12.0909 31.3961 12.0909C28.578 12.0909 26.0249 12.803 23.737 14.2273C21.4643 15.6515 19.6537 17.75 18.3052 20.5227C16.9719 23.2955 16.3052 26.697 16.3052 30.7273C16.3052 34.7576 16.9719 38.1591 18.3052 40.9318C19.6537 43.7045 21.4643 45.803 23.737 47.2273C26.0249 48.6515 28.578 49.3636 31.3961 49.3636C32.9416 49.3636 34.4264 49.1515 35.8507 48.7273C37.2749 48.303 38.5704 47.6742 39.737 46.8409C40.9189 45.9924 41.9189 44.9545 42.737 43.7273C43.5704 42.4848 44.1537 41.0606 44.487 39.4545H50.1234C49.6992 41.8333 48.9264 43.9621 47.8052 45.8409C46.684 47.7197 45.2901 49.3182 43.6234 50.6364C41.9567 51.9394 40.0855 52.9318 38.0098 53.6136C35.9492 54.2955 33.7446 54.6364 31.3961 54.6364C27.4264 54.6364 23.8961 53.6667 20.8052 51.7273C17.7143 49.7879 15.2825 47.0303 13.5098 43.4545C11.737 39.8788 10.8507 35.6364 10.8507 30.7273C10.8507 25.8182 11.737 21.5758 13.5098 18C15.2825 14.4242 17.7143 11.6667 20.8052 9.72727C23.8961 7.78788 27.4264 6.81818 31.3961 6.81818C33.7446 6.81818 35.9492 7.15909 38.0098 7.84091C40.0855 8.52273 41.9567 9.52273 43.6234 10.8409C45.2901 12.1439 46.684 13.7348 47.8052 15.6136C48.9264 17.4773 49.6992 19.6061 50.1234 22ZM62.2786 67.0909C61.3695 67.0909 60.5589 67.0152 59.8468 66.8636C59.1347 66.7273 58.6423 66.5909 58.3695 66.4545L59.7332 61.7273C61.0362 62.0606 62.1877 62.1818 63.1877 62.0909C64.1877 62 65.0741 61.553 65.8468 60.75C66.6347 59.9621 67.3544 58.6818 68.0059 56.9091L69.0059 54.1818L56.0968 19.0909H61.915L71.5514 46.9091H71.915L81.5514 19.0909H87.3695L72.5514 59.0909C71.8847 60.8939 71.0589 62.3864 70.0741 63.5682C69.0892 64.7652 67.9453 65.6515 66.6423 66.2273C65.3544 66.803 63.8998 67.0909 62.2786 67.0909ZM95.4964 54V7.45454H100.86V24.6364H101.315C101.708 24.0303 102.254 23.2576 102.951 22.3182C103.663 21.3636 104.678 20.5152 105.996 19.7727C107.33 19.0152 109.133 18.6364 111.405 18.6364C114.345 18.6364 116.936 19.3712 119.178 20.8409C121.421 22.3106 123.171 24.3939 124.428 27.0909C125.686 29.7879 126.315 32.9697 126.315 36.6364C126.315 40.3333 125.686 43.5379 124.428 46.25C123.171 48.947 121.428 51.0379 119.201 52.5227C116.974 53.9924 114.405 54.7273 111.496 54.7273C109.254 54.7273 107.458 54.3561 106.11 53.6136C104.762 52.8561 103.724 52 102.996 51.0455C102.269 50.0758 101.708 49.2727 101.315 48.6364H100.678V54H95.4964ZM100.769 36.5455C100.769 39.1818 101.155 41.5076 101.928 43.5227C102.701 45.5227 103.83 47.0909 105.315 48.2273C106.799 49.3485 108.618 49.9091 110.769 49.9091C113.012 49.9091 114.883 49.3182 116.383 48.1364C117.898 46.9394 119.034 45.3333 119.792 43.3182C120.565 41.2879 120.951 39.0303 120.951 36.5455C120.951 34.0909 120.572 31.8788 119.815 29.9091C119.072 27.9242 117.943 26.3561 116.428 25.2045C114.928 24.0379 113.042 23.4545 110.769 23.4545C108.587 23.4545 106.754 24.0076 105.269 25.1136C103.784 26.2045 102.663 27.7348 101.905 29.7045C101.148 31.6591 100.769 33.9394 100.769 36.5455ZM149.475 54.7273C146.112 54.7273 143.21 53.9848 140.771 52.5C138.347 51 136.475 48.9091 135.157 46.2273C133.854 43.5303 133.203 40.3939 133.203 36.8182C133.203 33.2424 133.854 30.0909 135.157 27.3636C136.475 24.6212 138.309 22.4848 140.657 20.9545C143.021 19.4091 145.778 18.6364 148.93 18.6364C150.748 18.6364 152.544 18.9394 154.316 19.5455C156.089 20.1515 157.703 21.1364 159.157 22.5C160.612 23.8485 161.771 25.6364 162.635 27.8636C163.498 30.0909 163.93 32.8333 163.93 36.0909V38.3636H137.021V33.7273H158.475C158.475 31.7576 158.082 30 157.294 28.4545C156.521 26.9091 155.415 25.6894 153.975 24.7955C152.551 23.9015 150.869 23.4545 148.93 23.4545C146.794 23.4545 144.945 23.9848 143.385 25.0455C141.839 26.0909 140.65 27.4545 139.816 29.1364C138.983 30.8182 138.566 32.6212 138.566 34.5455V37.6364C138.566 40.2727 139.021 42.5076 139.93 44.3409C140.854 46.1591 142.135 47.5455 143.771 48.5C145.407 49.4394 147.309 49.9091 149.475 49.9091C150.885 49.9091 152.157 49.7121 153.294 49.3182C154.445 48.9091 155.438 48.303 156.271 47.5C157.104 46.6818 157.748 45.6667 158.203 44.4545L163.385 45.9091C162.839 47.6667 161.922 49.2121 160.635 50.5455C159.347 51.8636 157.756 52.8939 155.862 53.6364C153.968 54.3636 151.839 54.7273 149.475 54.7273ZM172.409 54V19.0909H177.591V24.3636H177.955C178.591 22.6364 179.742 21.2348 181.409 20.1591C183.076 19.0833 184.955 18.5455 187.045 18.5455C187.439 18.5455 187.932 18.553 188.523 18.5682C189.114 18.5833 189.561 18.6061 189.864 18.6364V24.0909C189.682 24.0455 189.265 23.9773 188.614 23.8864C187.977 23.7803 187.303 23.7273 186.591 23.7273C184.894 23.7273 183.379 24.0833 182.045 24.7955C180.727 25.4924 179.682 26.4621 178.909 27.7045C178.152 28.9318 177.773 30.3333 177.773 31.9091V54H172.409ZM215.589 54V7.45454H243.498V12.4545H221.225V28.1818H241.407V33.1818H221.225V54H215.589ZM258.108 7.45454V54H252.744V7.45454H258.108ZM271.706 67.0909C270.797 67.0909 269.986 67.0152 269.274 66.8636C268.562 66.7273 268.07 66.5909 267.797 66.4545L269.161 61.7273C270.464 62.0606 271.615 62.1818 272.615 62.0909C273.615 62 274.502 61.553 275.274 60.75C276.062 59.9621 276.782 58.6818 277.433 56.9091L278.433 54.1818L265.524 19.0909H271.342L280.979 46.9091H281.342L290.979 19.0909H296.797L281.979 59.0909C281.312 60.8939 280.486 62.3864 279.502 63.5682C278.517 64.7652 277.373 65.6515 276.07 66.2273C274.782 66.803 273.327 67.0909 271.706 67.0909Z" fill="black"/>
<path d="M50.1234 22V23H51.3162L51.1081 21.8255L50.1234 22ZM44.487 22L43.5075 22.2014L43.6717 23H44.487V22ZM42.737 17.7273L41.905 18.282L41.9097 18.289L42.737 17.7273ZM39.737 14.6364L39.1489 15.4451L39.1548 15.4494L39.1608 15.4536L39.737 14.6364ZM35.8507 12.7273L35.5652 13.6857L35.5652 13.6857L35.8507 12.7273ZM23.737 14.2273L23.2086 13.3783L23.206 13.3799L23.737 14.2273ZM18.3052 20.5227L17.4059 20.0854L17.404 20.0894L18.3052 20.5227ZM18.3052 40.9318L17.404 41.3652L17.4059 41.3692L18.3052 40.9318ZM23.737 47.2273L23.206 48.0746L23.2086 48.0762L23.737 47.2273ZM35.8507 48.7273L35.5652 47.7689L35.5652 47.7689L35.8507 48.7273ZM39.737 46.8409L40.3183 47.6546L40.3203 47.6532L39.737 46.8409ZM42.737 43.7273L41.9066 43.1702L41.905 43.1726L42.737 43.7273ZM44.487 39.4545V38.4545H43.6733L43.5079 39.2513L44.487 39.4545ZM50.1234 39.4545L51.1079 39.6301L51.3175 38.4545H50.1234V39.4545ZM47.8052 45.8409L46.9465 45.3285L46.9465 45.3285L47.8052 45.8409ZM43.6234 50.6364L44.2393 51.4242L44.2438 51.4207L43.6234 50.6364ZM38.0098 53.6136L37.6977 52.6636L37.6956 52.6643L38.0098 53.6136ZM20.8052 51.7273L20.2737 52.5743L20.2737 52.5743L20.8052 51.7273ZM13.5098 43.4545L14.4057 43.0104L14.4057 43.0104L13.5098 43.4545ZM13.5098 18L12.6138 17.5558L13.5098 18ZM38.0098 7.84091L37.6956 8.79029L37.6977 8.79097L38.0098 7.84091ZM43.6234 10.8409L43.0031 11.6253L43.0075 11.6287L43.6234 10.8409ZM47.8052 15.6136L46.9465 16.1261L46.9484 16.1292L47.8052 15.6136ZM50.1234 21H44.487V23H50.1234V21ZM45.4666 21.7986C45.1098 20.0633 44.4798 18.5137 43.5644 17.1655L41.9097 18.289C42.661 19.3954 43.1977 20.6942 43.5075 22.2014L45.4666 21.7986ZM43.5691 17.1726C42.684 15.8449 41.5979 14.7249 40.3133 13.8191L39.1608 15.4536C40.2398 16.2145 41.1538 17.1551 41.905 18.282L43.5691 17.1726ZM40.3252 13.8276C39.0641 12.9105 37.6657 12.2245 36.1362 11.7689L35.5652 13.6857C36.8841 14.0785 38.0767 14.6653 39.1489 15.4451L40.3252 13.8276ZM36.1362 11.7689C34.6156 11.316 33.0344 11.0909 31.3961 11.0909V13.0909C32.8488 13.0909 34.2373 13.2901 35.5652 13.6857L36.1362 11.7689ZM31.3961 11.0909C28.4001 11.0909 25.6625 11.8507 23.2086 13.3783L24.2655 15.0762C26.3874 13.7553 28.7558 13.0909 31.3961 13.0909V11.0909ZM23.206 13.3799C20.7519 14.9178 18.8238 17.1699 17.4059 20.0854L19.2045 20.9601C20.4836 18.3301 22.1767 16.3852 24.2681 15.0746L23.206 13.3799ZM17.404 20.0894C15.9888 23.0325 15.3052 26.5915 15.3052 30.7273H17.3052C17.3052 26.8024 17.955 23.5585 19.2064 20.9561L17.404 20.0894ZM15.3052 30.7273C15.3052 34.863 15.9888 38.4221 17.404 41.3652L19.2064 40.4984C17.955 37.8961 17.3052 34.6521 17.3052 30.7273H15.3052ZM17.4059 41.3692C18.8238 44.2846 20.7519 46.5367 23.206 48.0746L24.2681 46.3799C22.1767 45.0693 20.4836 43.1245 19.2045 40.4945L17.4059 41.3692ZM23.2086 48.0762C25.6625 49.6038 28.4001 50.3636 31.3961 50.3636V48.3636C28.7558 48.3636 26.3874 47.6992 24.2655 46.3783L23.2086 48.0762ZM31.3961 50.3636C33.0344 50.3636 34.6156 50.1386 36.1362 49.6857L35.5652 47.7689C34.2373 48.1644 32.8488 48.3636 31.3961 48.3636V50.3636ZM36.1362 49.6857C37.6624 49.231 39.0584 48.5545 40.3183 47.6546L39.1558 46.0272C38.0823 46.794 36.8875 47.375 35.5652 47.7689L36.1362 49.6857ZM40.3203 47.6532C41.6012 46.7336 42.6851 45.608 43.5691 44.282L41.905 43.1726C41.1526 44.3011 40.2365 45.2513 39.1538 46.0286L40.3203 47.6532ZM43.5675 44.2843C44.4794 42.9247 45.1091 41.378 45.4662 39.6578L43.5079 39.2513C43.1983 40.7432 42.6613 42.045 41.9066 43.1702L43.5675 44.2843ZM44.487 40.4545H50.1234V38.4545H44.487V40.4545ZM49.1389 39.279C48.7337 41.5512 47.9997 43.5637 46.9465 45.3285L48.6639 46.3534C49.8532 44.3605 50.6646 42.1155 51.1079 39.6301L49.1389 39.279ZM46.9465 45.3285C45.8857 47.106 44.5716 48.6115 43.0031 49.852L44.2438 51.4207C46.0086 50.0249 47.4823 48.3334 48.6639 46.3534L46.9465 45.3285ZM43.0075 49.8486C41.4349 51.078 39.6672 52.0167 37.6977 52.6636L38.3218 54.5637C40.5039 53.847 42.4786 52.8008 44.2393 51.4242L43.0075 49.8486ZM37.6956 52.6643C35.7444 53.3099 33.6466 53.6364 31.3961 53.6364V55.6364C33.8426 55.6364 36.154 55.281 38.3239 54.563L37.6956 52.6643ZM31.3961 53.6364C27.5973 53.6364 24.2544 52.7109 21.3367 50.8802L20.2737 52.5743C23.5378 54.6224 27.2556 55.6364 31.3961 55.6364V53.6364ZM21.3367 50.8802C18.4166 49.048 16.1044 46.4368 14.4057 43.0104L12.6138 43.8987C14.4606 47.6238 17.012 50.5278 20.2737 52.5743L21.3367 50.8802ZM14.4057 43.0104C12.7154 39.6008 11.8507 35.5171 11.8507 30.7273H9.85068C9.85068 35.7557 10.7587 40.1568 12.6138 43.8987L14.4057 43.0104ZM11.8507 30.7273C11.8507 25.9375 12.7154 21.8538 14.4057 18.4442L12.6138 17.5558C10.7587 21.2978 9.85068 25.6989 9.85068 30.7273H11.8507ZM14.4057 18.4442C16.1044 15.0177 18.4166 12.4065 21.3367 10.5743L20.2737 8.88021C17.012 10.9268 14.4606 13.8308 12.6138 17.5558L14.4057 18.4442ZM21.3367 10.5743C24.2544 8.74362 27.5973 7.81818 31.3961 7.81818V5.81818C27.2556 5.81818 23.5378 6.83214 20.2737 8.88021L21.3367 10.5743ZM31.3961 7.81818C33.6466 7.81818 35.7444 8.14464 37.6956 8.79029L38.3239 6.89153C36.154 6.17354 33.8426 5.81818 31.3961 5.81818V7.81818ZM37.6977 8.79097C39.665 9.43715 41.4312 10.3821 43.0031 11.6252L44.2438 10.0566C42.4823 8.6634 40.5061 7.6083 38.3218 6.89085L37.6977 8.79097ZM43.0075 11.6287C44.5736 12.8531 45.8864 14.3496 46.9465 16.1261L48.6639 15.1012C47.4817 13.1201 46.0066 11.4347 44.2393 10.0531L43.0075 11.6287ZM46.9484 16.1292C47.9995 17.8763 48.7334 19.887 49.1388 22.1745L51.1081 21.8255C50.665 19.3252 49.8534 17.0783 48.6621 15.0981L46.9484 16.1292ZM59.8468 66.8636L60.0549 65.8855L60.0449 65.8834L60.0349 65.8815L59.8468 66.8636ZM58.3695 66.4545L57.4087 66.1774L57.1781 66.9769L57.9223 67.349L58.3695 66.4545ZM59.7332 61.7273L59.981 60.7585L59.0412 60.5181L58.7724 61.4501L59.7332 61.7273ZM63.1877 62.0909L63.0972 61.095L63.0972 61.095L63.1877 62.0909ZM65.8468 60.75L65.1397 60.0429L65.1329 60.0497L65.1262 60.0566L65.8468 60.75ZM68.0059 56.9091L68.9445 57.2541L68.9448 57.2533L68.0059 56.9091ZM69.0059 54.1818L69.9448 54.5261L70.0712 54.1813L69.9444 53.8366L69.0059 54.1818ZM56.0968 19.0909V18.0909H54.6634L55.1583 19.4362L56.0968 19.0909ZM61.915 19.0909L62.8599 18.7636L62.6269 18.0909H61.915V19.0909ZM71.5514 46.9091L70.6065 47.2364L70.8395 47.9091H71.5514V46.9091ZM71.915 46.9091V47.9091H72.6269L72.8599 47.2364L71.915 46.9091ZM81.5514 19.0909V18.0909H80.8395L80.6065 18.7636L81.5514 19.0909ZM87.3695 19.0909L88.3073 19.4383L88.8064 18.0909H87.3695V19.0909ZM72.5514 59.0909L71.6136 58.7435L71.6134 58.7441L72.5514 59.0909ZM70.0741 63.5682L69.3059 62.928L69.3019 62.9328L70.0741 63.5682ZM66.6423 66.2273L66.2381 65.3126L66.2341 65.3143L66.6423 66.2273ZM62.2786 66.0909C61.423 66.0909 60.6842 66.0194 60.0549 65.8855L59.6387 67.8417C60.4337 68.0109 61.3161 68.0909 62.2786 68.0909V66.0909ZM60.0349 65.8815C59.3233 65.7452 58.9536 65.6286 58.8168 65.5601L57.9223 67.349C58.3309 67.5533 58.9461 67.7093 59.6587 67.8458L60.0349 65.8815ZM59.3304 66.7317L60.694 62.0044L58.7724 61.4501L57.4087 66.1774L59.3304 66.7317ZM59.4853 62.6961C60.8637 63.0487 62.1335 63.1909 63.2783 63.0868L63.0972 61.095C62.2419 61.1728 61.2087 61.0725 59.981 60.7585L59.4853 62.6961ZM63.2783 63.0868C64.5446 62.9717 65.6475 62.3993 66.5674 61.4434L65.1262 60.0566C64.5007 60.7067 63.8308 61.0283 63.0972 61.095L63.2783 63.0868ZM66.5539 61.4571C67.492 60.5191 68.2731 59.0809 68.9445 57.2541L67.0673 56.5641C66.4357 58.2827 65.7774 59.4052 65.1397 60.0429L66.5539 61.4571ZM68.9448 57.2533L69.9448 54.5261L68.067 53.8376L67.067 56.5648L68.9448 57.2533ZM69.9444 53.8366L57.0353 18.7457L55.1583 19.4362L68.0674 54.5271L69.9444 53.8366ZM56.0968 20.0909H61.915V18.0909H56.0968V20.0909ZM60.9701 19.4182L70.6065 47.2364L72.4963 46.5818L62.8599 18.7636L60.9701 19.4182ZM71.5514 47.9091H71.915V45.9091H71.5514V47.9091ZM72.8599 47.2364L82.4963 19.4182L80.6065 18.7636L70.9701 46.5818L72.8599 47.2364ZM81.5514 20.0909H87.3695V18.0909H81.5514V20.0909ZM86.4318 18.7435L71.6136 58.7435L73.4891 59.4383L88.3073 19.4383L86.4318 18.7435ZM71.6134 58.7441C70.9768 60.4659 70.2023 61.8523 69.3059 62.928L70.8423 64.2084C71.9156 62.9204 72.7926 61.3219 73.4893 59.4377L71.6134 58.7441ZM69.3019 62.9328C68.4073 64.02 67.386 64.8054 66.2381 65.3126L67.0464 67.142C68.5046 66.4977 69.7712 65.5103 70.8463 64.2035L69.3019 62.9328ZM66.2341 65.3143C65.0925 65.8247 63.7801 66.0909 62.2786 66.0909V68.0909C64.0196 68.0909 65.6163 67.7813 67.0504 67.1402L66.2341 65.3143ZM95.4964 54H94.4964V55H95.4964V54ZM95.4964 7.45454V6.45454H94.4964V7.45454H95.4964ZM100.86 7.45454H101.86V6.45454H100.86V7.45454ZM100.86 24.6364H99.86V25.6364H100.86V24.6364ZM101.315 24.6364V25.6364H101.857L102.153 25.1814L101.315 24.6364ZM102.951 22.3182L102.149 21.7202L102.148 21.7223L102.951 22.3182ZM105.996 19.7727L106.487 20.644L106.49 20.6422L105.996 19.7727ZM119.178 20.8409L119.726 20.0045L119.726 20.0045L119.178 20.8409ZM124.428 46.25L125.334 46.6726L125.335 46.6707L124.428 46.25ZM119.201 52.5227L119.752 53.3574L119.756 53.3548L119.201 52.5227ZM106.11 53.6136L105.62 54.4855L105.628 54.4896L106.11 53.6136ZM102.996 51.0455L102.196 51.6455L102.201 51.6515L102.996 51.0455ZM101.315 48.6364L102.165 48.11L101.872 47.6364H101.315V48.6364ZM100.678 48.6364V47.6364H99.6782V48.6364H100.678ZM100.678 54V55H101.678V54H100.678ZM101.928 43.5227L100.994 43.8808L100.995 43.8831L101.928 43.5227ZM105.315 48.2273L104.707 49.0214L104.712 49.0253L105.315 48.2273ZM116.383 48.1364L117.002 48.9219L117.003 48.921L116.383 48.1364ZM119.792 43.3182L118.857 42.9625L118.856 42.9663L119.792 43.3182ZM119.815 29.9091L118.878 30.2594L118.881 30.2681L119.815 29.9091ZM116.428 25.2045L115.814 25.9939L115.823 26.0007L116.428 25.2045ZM105.269 25.1136L105.861 25.9195L105.866 25.9156L105.269 25.1136ZM101.905 29.7045L102.838 30.0659L102.839 30.0635L101.905 29.7045ZM96.4964 54V7.45454H94.4964V54H96.4964ZM95.4964 8.45454H100.86V6.45454H95.4964V8.45454ZM99.86 7.45454V24.6364H101.86V7.45454H99.86ZM100.86 25.6364H101.315V23.6364H100.86V25.6364ZM102.153 25.1814C102.531 24.5998 103.063 23.8456 103.754 22.914L102.148 21.7223C101.445 22.6695 100.886 23.4608 100.476 24.0914L102.153 25.1814ZM103.752 22.9161C104.362 22.0993 105.259 21.3359 106.487 20.644L105.506 18.9014C104.098 19.6944 102.964 20.628 102.149 21.7202L103.752 22.9161ZM106.49 20.6422C107.618 20.0017 109.228 19.6364 111.405 19.6364V17.6364C109.037 17.6364 107.042 18.0286 105.502 18.9033L106.49 20.6422ZM111.405 19.6364C114.17 19.6364 116.566 20.3246 118.63 21.6773L119.726 20.0045C117.305 18.4179 114.52 17.6364 111.405 17.6364V19.6364ZM118.63 21.6773C120.7 23.0341 122.334 24.966 123.522 27.5135L125.334 26.6683C124.007 23.8219 122.141 21.5871 119.726 20.0045L118.63 21.6773ZM123.522 27.5135C124.705 30.0511 125.315 33.0826 125.315 36.6364H127.315C127.315 32.8568 126.666 29.5247 125.334 26.6683L123.522 27.5135ZM125.315 36.6364C125.315 40.2216 124.705 43.2764 123.521 45.8293L125.335 46.6707C126.667 43.7994 127.315 40.4451 127.315 36.6364H125.315ZM123.522 45.8274C122.333 48.3773 120.704 50.3186 118.646 51.6907L119.756 53.3548C122.152 51.7572 124.008 49.5166 125.334 46.6726L123.522 45.8274ZM118.65 51.6881C116.601 53.0402 114.228 53.7273 111.496 53.7273V55.7273C114.583 55.7273 117.346 54.9446 119.752 53.3574L118.65 51.6881ZM111.496 53.7273C109.351 53.7273 107.741 53.37 106.592 52.7376L105.628 54.4896C107.176 55.3422 109.157 55.7273 111.496 55.7273V53.7273ZM106.6 52.7418C105.337 52.0325 104.416 51.259 103.792 50.4394L102.201 51.6515C103.031 52.741 104.186 53.6796 105.62 54.4855L106.6 52.7418ZM103.796 50.4455C103.077 49.4869 102.537 48.7105 102.165 48.11L100.464 49.1627C100.88 49.8349 101.461 50.6646 102.196 51.6455L103.796 50.4455ZM101.315 47.6364H100.678V49.6364H101.315V47.6364ZM99.6782 48.6364V54H101.678V48.6364H99.6782ZM100.678 53H95.4964V55H100.678V53ZM99.7691 36.5455C99.7691 39.2779 100.169 41.7291 100.994 43.8808L102.862 43.1647C102.142 41.286 101.769 39.0857 101.769 36.5455H99.7691ZM100.995 43.8831C101.825 46.0292 103.055 47.7575 104.707 49.0214L105.922 47.4331C104.604 46.4243 103.577 45.0163 102.861 43.1623L100.995 43.8831ZM104.712 49.0253C106.397 50.2974 108.435 50.9091 110.769 50.9091V48.9091C108.8 48.9091 107.202 48.3995 105.917 47.4292L104.712 49.0253ZM110.769 50.9091C113.195 50.9091 115.296 50.2659 117.002 48.9219L115.764 47.3509C114.47 48.3705 112.828 48.9091 110.769 48.9091V50.9091ZM117.003 48.921C118.677 47.5987 119.914 45.8355 120.728 43.6701L118.856 42.9663C118.155 44.8312 117.119 46.2801 115.763 47.3517L117.003 48.921ZM120.726 43.6739C121.548 41.5149 121.951 39.1346 121.951 36.5455H119.951C119.951 38.926 119.581 41.0609 118.857 42.9625L120.726 43.6739ZM121.951 36.5455C121.951 33.9879 121.556 31.6514 120.748 29.5501L118.881 30.2681C119.588 32.1062 119.951 34.1939 119.951 36.5455H121.951ZM120.751 29.5588C119.95 27.4177 118.716 25.6869 117.033 24.4084L115.823 26.0007C117.171 27.0252 118.194 28.4308 118.878 30.2594L120.751 29.5588ZM117.042 24.4152C115.334 23.0867 113.219 22.4545 110.769 22.4545V24.4545C112.865 24.4545 114.522 24.9891 115.814 25.9939L117.042 24.4152ZM110.769 22.4545C108.412 22.4545 106.359 23.0552 104.672 24.3117L105.866 25.9156C107.149 24.96 108.763 24.4545 110.769 24.4545V22.4545ZM104.677 24.3078C103.017 25.5277 101.788 27.2239 100.972 29.3456L102.839 30.0635C103.538 28.2458 104.552 26.8814 105.861 25.9195L104.677 24.3078ZM100.973 29.3431C100.161 31.4372 99.7691 33.8448 99.7691 36.5455H101.769C101.769 34.034 102.134 31.881 102.838 30.0659L100.973 29.3431ZM140.771 52.5L140.245 53.3504L140.251 53.3542L140.771 52.5ZM135.157 46.2273L134.257 46.6623L134.26 46.6684L135.157 46.2273ZM135.157 27.3636L134.256 26.9304L134.255 26.9325L135.157 27.3636ZM140.657 20.9545L141.203 21.7924L141.205 21.7915L140.657 20.9545ZM154.316 19.5455L154.64 18.5992L154.64 18.5992L154.316 19.5455ZM159.157 22.5L158.473 23.2295L158.477 23.2333L159.157 22.5ZM162.635 27.8636L163.567 27.5021L163.567 27.5021L162.635 27.8636ZM163.93 38.3636V39.3636H164.93V38.3636H163.93ZM137.021 38.3636H136.021V39.3636H137.021V38.3636ZM137.021 33.7273V32.7273H136.021V33.7273H137.021ZM158.475 33.7273V34.7273H159.475V33.7273H158.475ZM157.294 28.4545L156.399 28.9018L156.403 28.9087L157.294 28.4545ZM153.975 24.7955L153.444 25.6424L153.448 25.645L153.975 24.7955ZM143.385 25.0455L143.945 25.8737L143.947 25.8725L143.385 25.0455ZM139.816 29.1364L138.92 28.6924L138.92 28.6924L139.816 29.1364ZM139.93 44.3409L139.034 44.7852L139.039 44.7941L139.93 44.3409ZM143.771 48.5L143.267 49.3638L143.273 49.3673L143.771 48.5ZM153.294 49.3182L153.621 50.263L153.628 50.2605L153.294 49.3182ZM156.271 47.5L156.965 48.2201L156.972 48.2136L156.271 47.5ZM158.203 44.4545L158.473 43.4918L157.589 43.2436L157.266 44.1034L158.203 44.4545ZM163.385 45.9091L164.34 46.2055L164.644 45.224L163.655 44.9463L163.385 45.9091ZM160.635 50.5455L161.35 51.2443L161.354 51.2402L160.635 50.5455ZM155.862 53.6364L156.22 54.5699L156.227 54.5674L155.862 53.6364ZM149.475 53.7273C146.262 53.7273 143.548 53.0195 141.291 51.6458L140.251 53.3542C142.873 54.9502 145.961 55.7273 149.475 55.7273V53.7273ZM141.297 51.6496C139.04 50.2533 137.294 48.3079 136.055 45.7862L134.26 46.6684C135.657 49.5103 137.653 51.7467 140.245 53.3504L141.297 51.6496ZM136.058 45.7922C134.832 43.2547 134.203 40.2722 134.203 36.8182H132.203C132.203 40.5157 132.877 43.8059 134.257 46.6623L136.058 45.7922ZM134.203 36.8182C134.203 33.3646 134.832 30.3649 136.06 27.7947L134.255 26.9325C132.877 29.8169 132.203 33.1203 132.203 36.8182H134.203ZM136.059 27.7969C137.305 25.2047 139.021 23.2143 141.203 21.7924L140.111 20.1167C137.597 21.7553 135.646 24.0378 134.256 26.9304L136.059 27.7969ZM141.205 21.7915C143.387 20.3645 145.95 19.6364 148.93 19.6364V17.6364C145.607 17.6364 142.655 18.4537 140.11 20.1176L141.205 21.7915ZM148.93 19.6364C150.635 19.6364 152.321 19.9201 153.993 20.4917L154.64 18.5992C152.766 17.9587 150.862 17.6364 148.93 17.6364V19.6364ZM153.993 20.4917C155.623 21.049 157.115 21.9565 158.473 23.2295L159.841 21.7705C158.29 20.3162 156.555 19.2541 154.64 18.5992L153.993 20.4917ZM158.477 23.2333C159.8 24.4597 160.882 26.1108 161.702 28.2252L163.567 27.5021C162.659 25.1619 161.423 23.2373 159.837 21.7667L158.477 23.2333ZM161.702 28.2252C162.508 30.3036 162.93 32.915 162.93 36.0909H164.93C164.93 32.7517 164.488 29.8783 163.567 27.5021L161.702 28.2252ZM162.93 36.0909V38.3636H164.93V36.0909H162.93ZM163.93 37.3636H137.021V39.3636H163.93V37.3636ZM138.021 38.3636V33.7273H136.021V38.3636H138.021ZM137.021 34.7273H158.475V32.7273H137.021V34.7273ZM159.475 33.7273C159.475 31.6212 159.053 29.7045 158.185 28.0004L156.403 28.9087C157.11 30.2955 157.475 31.8939 157.475 33.7273H159.475ZM158.188 28.0073C157.334 26.2999 156.103 24.9395 154.503 23.946L153.448 25.645C154.727 26.4393 155.707 27.5183 156.399 28.9018L158.188 28.0073ZM154.507 23.9485C152.9 22.94 151.028 22.4545 148.93 22.4545V24.4545C150.711 24.4545 152.202 24.8631 153.444 25.6424L154.507 23.9485ZM148.93 22.4545C146.621 22.4545 144.57 23.0306 142.822 24.2184L143.947 25.8725C145.32 24.9391 146.967 24.4545 148.93 24.4545V22.4545ZM142.824 24.2172C141.135 25.3601 139.83 26.8566 138.92 28.6924L140.712 29.5803C141.469 28.0525 142.544 26.8217 143.945 25.8737L142.824 24.2172ZM138.92 28.6924C138.017 30.5158 137.566 32.4712 137.566 34.5455H139.566C139.566 32.7712 139.949 31.1206 140.712 29.5803L138.92 28.6924ZM137.566 34.5455V37.6364H139.566V34.5455H137.566ZM137.566 37.6364C137.566 40.3839 138.04 42.7798 139.034 44.7852L140.826 43.8967C140.002 42.2353 139.566 40.1616 139.566 37.6364H137.566ZM139.039 44.7941C140.043 46.7698 141.452 48.305 143.267 49.3638L144.275 47.6362C142.817 46.7859 141.666 45.5484 140.821 43.8878L139.039 44.7941ZM143.273 49.3673C145.082 50.4058 147.16 50.9091 149.475 50.9091V48.9091C147.457 48.9091 145.732 48.473 144.269 47.6327L143.273 49.3673ZM149.475 50.9091C150.977 50.9091 152.363 50.6991 153.621 50.263L152.966 48.3733C151.951 48.7251 150.792 48.9091 149.475 48.9091V50.9091ZM153.628 50.2605C154.906 49.8064 156.023 49.1274 156.965 48.2201L155.577 46.7799C154.852 47.4787 153.984 48.0117 152.959 48.3759L153.628 50.2605ZM156.972 48.2136C157.92 47.2826 158.639 46.1394 159.139 44.8057L157.266 44.1034C156.857 45.1939 156.289 46.0811 155.57 46.7864L156.972 48.2136ZM157.932 45.4173L163.114 46.8719L163.655 44.9463L158.473 43.4918L157.932 45.4173ZM162.429 45.6127C161.931 47.2197 161.095 48.629 159.915 49.8507L161.354 51.2402C162.75 49.7952 163.747 48.1136 164.34 46.2055L162.429 45.6127ZM159.919 49.8466C158.74 51.0534 157.273 52.0092 155.497 52.7053L156.227 54.5674C158.239 53.7787 159.953 52.6739 161.35 51.2443L159.919 49.8466ZM155.503 52.7028C153.741 53.3796 151.736 53.7273 149.475 53.7273V55.7273C151.942 55.7273 154.195 55.3477 156.22 54.5699L155.503 52.7028ZM172.409 54H171.409V55H172.409V54ZM172.409 19.0909V18.0909H171.409V19.0909H172.409ZM177.591 19.0909H178.591V18.0909H177.591V19.0909ZM177.591 24.3636H176.591V25.3636H177.591V24.3636ZM177.955 24.3636V25.3636H178.652L178.893 24.7093L177.955 24.3636ZM181.409 20.1591L180.867 19.3189L180.867 19.3189L181.409 20.1591ZM189.864 18.6364H190.864V17.7314L189.963 17.6413L189.864 18.6364ZM189.864 24.0909L189.621 25.0611L190.864 25.3717V24.0909H189.864ZM188.614 23.8864L188.449 24.8728L188.462 24.8749L188.475 24.8768L188.614 23.8864ZM182.045 24.7955L182.513 25.6795L182.517 25.6775L182.045 24.7955ZM178.909 27.7045L178.06 27.1764L178.058 27.1793L178.909 27.7045ZM177.773 54V55H178.773V54H177.773ZM173.409 54V19.0909H171.409V54H173.409ZM172.409 20.0909H177.591V18.0909H172.409V20.0909ZM176.591 19.0909V24.3636H178.591V19.0909H176.591ZM177.591 25.3636H177.955V23.3636H177.591V25.3636ZM178.893 24.7093C179.448 23.2016 180.452 21.9672 181.951 20.9993L180.867 19.3189C179.033 20.5025 177.733 22.0711 177.016 24.0179L178.893 24.7093ZM181.951 20.9993C183.447 20.0336 185.136 19.5455 187.045 19.5455V17.5455C184.773 17.5455 182.704 18.1331 180.867 19.3189L181.951 20.9993ZM187.045 19.5455C187.428 19.5455 187.911 19.5528 188.497 19.5679L188.548 17.5685C187.953 17.5532 187.451 17.5455 187.045 17.5455V19.5455ZM188.497 19.5679C189.082 19.5828 189.499 19.6049 189.764 19.6314L189.963 17.6413C189.622 17.6072 189.146 17.5838 188.548 17.5685L188.497 19.5679ZM188.864 18.6364V24.0909H190.864V18.6364H188.864ZM190.106 23.1208C189.862 23.0598 189.388 22.9848 188.752 22.896L188.475 24.8768C189.142 24.9698 189.501 25.0311 189.621 25.0611L190.106 23.1208ZM188.778 22.9C188.082 22.784 187.353 22.7273 186.591 22.7273V24.7273C187.254 24.7273 187.872 24.7766 188.449 24.8728L188.778 22.9ZM186.591 22.7273C184.75 22.7273 183.07 23.1147 181.574 23.9134L182.517 25.6775C183.688 25.0519 185.038 24.7273 186.591 24.7273V22.7273ZM181.578 23.9114C180.106 24.6895 178.928 25.7807 178.06 27.1764L179.758 28.2327C180.436 27.1436 181.348 26.2954 182.513 25.6795L181.578 23.9114ZM178.058 27.1793C177.194 28.5789 176.773 30.1656 176.773 31.9091H178.773C178.773 30.5011 179.109 29.2847 179.76 28.2298L178.058 27.1793ZM176.773 31.9091V54H178.773V31.9091H176.773ZM177.773 53H172.409V55H177.773V53ZM215.589 54H214.589V55H215.589V54ZM215.589 7.45454V6.45454H214.589V7.45454H215.589ZM243.498 7.45454H244.498V6.45454H243.498V7.45454ZM243.498 12.4545V13.4545H244.498V12.4545H243.498ZM221.225 12.4545V11.4545H220.225V12.4545H221.225ZM221.225 28.1818H220.225V29.1818H221.225V28.1818ZM241.407 28.1818H242.407V27.1818H241.407V28.1818ZM241.407 33.1818V34.1818H242.407V33.1818H241.407ZM221.225 33.1818V32.1818H220.225V33.1818H221.225ZM221.225 54V55H222.225V54H221.225ZM216.589 54V7.45454H214.589V54H216.589ZM215.589 8.45454H243.498V6.45454H215.589V8.45454ZM242.498 7.45454V12.4545H244.498V7.45454H242.498ZM243.498 11.4545H221.225V13.4545H243.498V11.4545ZM220.225 12.4545V28.1818H222.225V12.4545H220.225ZM221.225 29.1818H241.407V27.1818H221.225V29.1818ZM240.407 28.1818V33.1818H242.407V28.1818H240.407ZM241.407 32.1818H221.225V34.1818H241.407V32.1818ZM220.225 33.1818V54H222.225V33.1818H220.225ZM221.225 53H215.589V55H221.225V53ZM258.108 7.45454H259.108V6.45454H258.108V7.45454ZM258.108 54V55H259.108V54H258.108ZM252.744 54H251.744V55H252.744V54ZM252.744 7.45454V6.45454H251.744V7.45454H252.744ZM257.108 7.45454V54H259.108V7.45454H257.108ZM258.108 53H252.744V55H258.108V53ZM253.744 54V7.45454H251.744V54H253.744ZM252.744 8.45454H258.108V6.45454H252.744V8.45454ZM269.274 66.8636L269.482 65.8855L269.472 65.8834L269.462 65.8815L269.274 66.8636ZM267.797 66.4545L266.836 66.1774L266.606 66.9769L267.35 67.349L267.797 66.4545ZM269.161 61.7273L269.409 60.7585L268.469 60.5181L268.2 61.4501L269.161 61.7273ZM272.615 62.0909L272.525 61.095L272.525 61.095L272.615 62.0909ZM275.274 60.75L274.567 60.0429L274.56 60.0497L274.554 60.0566L275.274 60.75ZM277.433 56.9091L278.372 57.2541L278.372 57.2533L277.433 56.9091ZM278.433 54.1818L279.372 54.5261L279.499 54.1813L279.372 53.8366L278.433 54.1818ZM265.524 19.0909V18.0909H264.091L264.586 19.4362L265.524 19.0909ZM271.342 19.0909L272.287 18.7636L272.054 18.0909H271.342V19.0909ZM280.979 46.9091L280.034 47.2364L280.267 47.9091H280.979V46.9091ZM281.342 46.9091V47.9091H282.054L282.287 47.2364L281.342 46.9091ZM290.979 19.0909V18.0909H290.267L290.034 18.7636L290.979 19.0909ZM296.797 19.0909L297.735 19.4383L298.234 18.0909H296.797V19.0909ZM281.979 59.0909L281.041 58.7435L281.041 58.7441L281.979 59.0909ZM279.502 63.5682L278.733 62.928L278.729 62.9328L279.502 63.5682ZM276.07 66.2273L275.666 65.3126L275.662 65.3143L276.07 66.2273ZM271.706 66.0909C270.851 66.0909 270.112 66.0194 269.482 65.8855L269.066 67.8417C269.861 68.0109 270.744 68.0909 271.706 68.0909V66.0909ZM269.462 65.8815C268.751 65.7452 268.381 65.6286 268.244 65.5601L267.35 67.349C267.758 67.5533 268.374 67.7093 269.086 67.8458L269.462 65.8815ZM268.758 66.7317L270.122 62.0044L268.2 61.4501L266.836 66.1774L268.758 66.7317ZM268.913 62.6961C270.291 63.0487 271.561 63.1909 272.706 63.0868L272.525 61.095C271.669 61.1728 270.636 61.0725 269.409 60.7585L268.913 62.6961ZM272.706 63.0868C273.972 62.9717 275.075 62.3993 275.995 61.4434L274.554 60.0566C273.928 60.7067 273.258 61.0283 272.525 61.095L272.706 63.0868ZM275.981 61.4571C276.919 60.5191 277.701 59.0809 278.372 57.2541L276.495 56.5641C275.863 58.2827 275.205 59.4052 274.567 60.0429L275.981 61.4571ZM278.372 57.2533L279.372 54.5261L277.495 53.8376L276.495 56.5648L278.372 57.2533ZM279.372 53.8366L266.463 18.7457L264.586 19.4362L277.495 54.5271L279.372 53.8366ZM265.524 20.0909H271.342V18.0909H265.524V20.0909ZM270.398 19.4182L280.034 47.2364L281.924 46.5818L272.287 18.7636L270.398 19.4182ZM280.979 47.9091H281.342V45.9091H280.979V47.9091ZM282.287 47.2364L291.924 19.4182L290.034 18.7636L280.398 46.5818L282.287 47.2364ZM290.979 20.0909H296.797V18.0909H290.979V20.0909ZM295.859 18.7435L281.041 58.7435L282.917 59.4383L297.735 19.4383L295.859 18.7435ZM281.041 58.7441C280.404 60.4659 279.63 61.8523 278.733 62.928L280.27 64.2084C281.343 62.9204 282.22 61.3219 282.917 59.4377L281.041 58.7441ZM278.729 62.9328C277.835 64.02 276.814 64.8054 275.666 65.3126L276.474 67.142C277.932 66.4977 279.199 65.5103 280.274 64.2035L278.729 62.9328ZM275.662 65.3143C274.52 65.8247 273.208 66.0909 271.706 66.0909V68.0909C273.447 68.0909 275.044 67.7813 276.478 67.1402L275.662 65.3143Z" fill="#00EDFC"/>
</g>
<defs>
<filter id="filter0_d_2_3" x="0.850677" y="0.81818" width="305.946" height="80.2727" filterUnits="userSpaceOnUse" color-interpolation-filters="sRGB">
<feFlood flood-opacity="0" result="BackgroundImageFix"/>
<feColorMatrix in="SourceAlpha" type="matrix" values="0 0 0 0 0 0 0 0 0 0 0 0 0 0 0 0 0 0 127 0" result="hardAlpha"/>
<feOffset dy="4"/>
<feGaussianBlur stdDeviation="5"/>
<feComposite in2="hardAlpha" operator="out"/>
<feColorMatrix type="matrix" values="0 0 0 0 0 0 0 0 0 0 0 0 0 0 0 0 0 0 0.25 0"/>
<feBlend mode="normal" in2="BackgroundImageFix" result="effect1_dropShadow_2_3"/>
<feBlend mode="normal" in="SourceGraphic" in2="effect1_dropShadow_2_3" result="shape"/>
</filter>
</defs>
</svg>
