<svg width="203" height="145" viewBox="0 0 203 145" fill="none" xmlns="http://www.w3.org/2000/svg">
<g filter="url(#filter0_d_2_3)">
<path d="M47.6564 6.45454H54.1109L67.02 28.1818H67.5655L80.4746 6.45454H86.9291L70.1109 33.8182V53H64.4746V33.8182L47.6564 6.45454ZM103.056 53.7273C99.9044 53.7273 97.1392 52.9773 94.7605 51.4773C92.3968 49.9773 90.5483 47.8788 89.215 45.1818C87.8968 42.4848 87.2377 39.3333 87.2377 35.7273C87.2377 32.0909 87.8968 28.9167 89.215 26.2045C90.5483 23.4924 92.3968 21.3864 94.7605 19.8864C97.1392 18.3864 99.9044 17.6364 103.056 17.6364C106.207 17.6364 108.965 18.3864 111.329 19.8864C113.707 21.3864 115.556 23.4924 116.874 26.2045C118.207 28.9167 118.874 32.0909 118.874 35.7273C118.874 39.3333 118.207 42.4848 116.874 45.1818C115.556 47.8788 113.707 49.9773 111.329 51.4773C108.965 52.9773 106.207 53.7273 103.056 53.7273ZM103.056 48.9091C105.45 48.9091 107.42 48.2955 108.965 47.0682C110.51 45.8409 111.654 44.2273 112.397 42.2273C113.139 40.2273 113.51 38.0606 113.51 35.7273C113.51 33.3939 113.139 31.2197 112.397 29.2045C111.654 27.1894 110.51 25.5606 108.965 24.3182C107.42 23.0758 105.45 22.4545 103.056 22.4545C100.662 22.4545 98.6923 23.0758 97.1468 24.3182C95.6014 25.5606 94.4574 27.1894 93.715 29.2045C92.9726 31.2197 92.6014 33.3939 92.6014 35.7273C92.6014 38.0606 92.9726 40.2273 93.715 42.2273C94.4574 44.2273 95.6014 45.8409 97.1468 47.0682C98.6923 48.2955 100.662 48.9091 103.056 48.9091ZM149.382 38.7273V18.0909H154.745V53H149.382V47.0909H149.018C148.2 48.8636 146.927 50.3712 145.2 51.6136C143.473 52.8409 141.291 53.4545 138.654 53.4545C136.473 53.4545 134.533 52.9773 132.836 52.0227C131.139 51.053 129.806 49.5985 128.836 47.6591C127.866 45.7045 127.382 43.2424 127.382 40.2727V18.0909H132.745V39.9091C132.745 42.4545 133.457 44.4848 134.882 46C136.321 47.5152 138.154 48.2727 140.382 48.2727C141.715 48.2727 143.071 47.9318 144.45 47.25C145.844 46.5682 147.01 45.5227 147.95 44.1136C148.904 42.7045 149.382 40.9091 149.382 38.7273ZM23.0097 130L10.2824 83.4545H16.0097L25.7369 121.364H26.1915L36.1006 83.4545H42.4642L52.3733 121.364H52.8278L62.5551 83.4545H68.2824L55.5551 130H49.7369L39.4642 92.9091H39.1006L28.8278 130H23.0097ZM85.8297 130.727C82.6781 130.727 79.913 129.977 77.5342 128.477C75.1706 126.977 73.3221 124.879 71.9887 122.182C70.6706 119.485 70.0115 116.333 70.0115 112.727C70.0115 109.091 70.6706 105.917 71.9887 103.205C73.3221 100.492 75.1706 98.3864 77.5342 96.8864C79.913 95.3864 82.6781 94.6364 85.8297 94.6364C88.9812 94.6364 91.7387 95.3864 94.1024 96.8864C96.4812 98.3864 98.3297 100.492 99.6478 103.205C100.981 105.917 101.648 109.091 101.648 112.727C101.648 116.333 100.981 119.485 99.6478 122.182C98.3297 124.879 96.4812 126.977 94.1024 128.477C91.7387 129.977 88.9812 130.727 85.8297 130.727ZM85.8297 125.909C88.2236 125.909 90.1933 125.295 91.7387 124.068C93.2842 122.841 94.4281 121.227 95.1706 119.227C95.913 117.227 96.2842 115.061 96.2842 112.727C96.2842 110.394 95.913 108.22 95.1706 106.205C94.4281 104.189 93.2842 102.561 91.7387 101.318C90.1933 100.076 88.2236 99.4545 85.8297 99.4545C83.4357 99.4545 81.466 100.076 79.9206 101.318C78.3751 102.561 77.2312 104.189 76.4887 106.205C75.7463 108.22 75.3751 110.394 75.3751 112.727C75.3751 115.061 75.7463 117.227 76.4887 119.227C77.2312 121.227 78.3751 122.841 79.9206 124.068C81.466 125.295 83.4357 125.909 85.8297 125.909ZM115.519 109V130H110.155V95.0909H115.337V100.545H115.792C116.61 98.7727 117.852 97.3485 119.519 96.2727C121.186 95.1818 123.337 94.6364 125.974 94.6364C128.337 94.6364 130.405 95.1212 132.178 96.0909C133.951 97.0455 135.33 98.5 136.314 100.455C137.299 102.394 137.792 104.848 137.792 107.818V130H132.428V108.182C132.428 105.439 131.716 103.303 130.292 101.773C128.867 100.227 126.913 99.4545 124.428 99.4545C122.716 99.4545 121.186 99.8258 119.837 100.568C118.504 101.311 117.451 102.394 116.678 103.818C115.905 105.242 115.519 106.97 115.519 109ZM155.004 83.4545L154.549 116.909H149.276L148.822 83.4545H155.004ZM151.913 130.364C150.792 130.364 149.83 129.962 149.026 129.159C148.223 128.356 147.822 127.394 147.822 126.273C147.822 125.152 148.223 124.189 149.026 123.386C149.83 122.583 150.792 122.182 151.913 122.182C153.034 122.182 153.996 122.583 154.799 123.386C155.602 124.189 156.004 125.152 156.004 126.273C156.004 127.015 155.814 127.697 155.436 128.318C155.072 128.939 154.58 129.439 153.958 129.818C153.352 130.182 152.67 130.364 151.913 130.364ZM173.136 83.4545L172.682 116.909H167.409L166.954 83.4545H173.136ZM170.045 130.364C168.924 130.364 167.962 129.962 167.159 129.159C166.356 128.356 165.954 127.394 165.954 126.273C165.954 125.152 166.356 124.189 167.159 123.386C167.962 122.583 168.924 122.182 170.045 122.182C171.167 122.182 172.129 122.583 172.932 123.386C173.735 124.189 174.136 125.152 174.136 126.273C174.136 127.015 173.947 127.697 173.568 128.318C173.204 128.939 172.712 129.439 172.091 129.818C171.485 130.182 170.803 130.364 170.045 130.364ZM191.269 83.4545L190.814 116.909H185.541L185.087 83.4545H191.269ZM188.178 130.364C187.057 130.364 186.095 129.962 185.291 129.159C184.488 128.356 184.087 127.394 184.087 126.273C184.087 125.152 184.488 124.189 185.291 123.386C186.095 122.583 187.057 122.182 188.178 122.182C189.299 122.182 190.261 122.583 191.064 123.386C191.867 124.189 192.269 125.152 192.269 126.273C192.269 127.015 192.079 127.697 191.701 128.318C191.337 128.939 190.845 129.439 190.223 129.818C189.617 130.182 188.935 130.364 188.178 130.364Z" fill="black"/>
<path d="M47.6564 6.45454V5.45454H45.868L46.8044 6.97817L47.6564 6.45454ZM54.1109 6.45454L54.9706 5.94376L54.68 5.45454H54.1109V6.45454ZM67.02 28.1818L66.1603 28.6926L66.451 29.1818H67.02V28.1818ZM67.5655 28.1818V29.1818H68.1345L68.4252 28.6926L67.5655 28.1818ZM80.4746 6.45454V5.45454H79.9055L79.6148 5.94376L80.4746 6.45454ZM86.9291 6.45454L87.781 6.97817L88.7175 5.45454H86.9291V6.45454ZM70.1109 33.8182L69.259 33.2946L69.1109 33.5354V33.8182H70.1109ZM70.1109 53V54H71.1109V53H70.1109ZM64.4746 53H63.4746V54H64.4746V53ZM64.4746 33.8182H65.4746V33.5354L65.3265 33.2946L64.4746 33.8182ZM47.6564 7.45454H54.1109V5.45454H47.6564V7.45454ZM53.2512 6.96533L66.1603 28.6926L67.8797 27.671L54.9706 5.94376L53.2512 6.96533ZM67.02 29.1818H67.5655V27.1818H67.02V29.1818ZM68.4252 28.6926L81.3343 6.96533L79.6148 5.94376L66.7058 27.671L68.4252 28.6926ZM80.4746 7.45454H86.9291V5.45454H80.4746V7.45454ZM86.0771 5.93092L69.259 33.2946L70.9629 34.3418L87.781 6.97817L86.0771 5.93092ZM69.1109 33.8182V53H71.1109V33.8182H69.1109ZM70.1109 52H64.4746V54H70.1109V52ZM65.4746 53V33.8182H63.4746V53H65.4746ZM65.3265 33.2946L48.5083 5.93092L46.8044 6.97817L63.6226 34.3418L65.3265 33.2946ZM94.7605 51.4773L94.2246 52.3216L94.2271 52.3231L94.7605 51.4773ZM89.215 45.1818L88.3166 45.6209L88.3186 45.625L89.215 45.1818ZM89.215 26.2045L88.3176 25.7634L88.3156 25.7674L89.215 26.2045ZM94.7605 19.8864L94.2271 19.0405L94.2246 19.042L94.7605 19.8864ZM111.329 19.8864L110.793 20.7307L110.795 20.7322L111.329 19.8864ZM116.874 26.2045L115.975 26.6417L115.977 26.6457L116.874 26.2045ZM116.874 45.1818L115.978 44.7386L115.976 44.7427L116.874 45.1818ZM111.329 51.4773L110.795 50.6314L110.793 50.6329L111.329 51.4773ZM108.965 47.0682L108.343 46.2851L108.343 46.2851L108.965 47.0682ZM112.397 42.2273L113.334 42.5753L113.334 42.5753L112.397 42.2273ZM112.397 29.2045L113.335 28.8588L113.335 28.8588L112.397 29.2045ZM108.965 24.3182L109.592 23.5388L109.592 23.5388L108.965 24.3182ZM97.1468 24.3182L96.5203 23.5388L96.5203 23.5388L97.1468 24.3182ZM93.715 29.2045L92.7767 28.8588L92.7767 28.8588L93.715 29.2045ZM93.715 42.2273L92.7775 42.5753L92.7775 42.5753L93.715 42.2273ZM97.1468 47.0682L97.7687 46.2851L97.7687 46.2851L97.1468 47.0682ZM103.056 52.7273C100.07 52.7273 97.4942 52.0189 95.2938 50.6314L94.2271 52.3231C96.7843 53.9357 99.7391 54.7273 103.056 54.7273V52.7273ZM95.2963 50.6329C93.0989 49.2385 91.3699 47.2841 90.1114 44.7386L88.3186 45.625C89.7268 48.4734 91.6947 50.7161 94.2246 52.3216L95.2963 50.6329ZM90.1134 44.7427C88.8742 42.2073 88.2377 39.2114 88.2377 35.7273H86.2377C86.2377 39.4553 86.9194 42.7624 88.3166 45.6209L90.1134 44.7427ZM88.2377 35.7273C88.2377 32.2116 88.8747 29.1924 90.1144 26.6417L88.3156 25.7674C86.919 28.6409 86.2377 31.9702 86.2377 35.7273H88.2377ZM90.1124 26.6457C91.3713 24.0851 93.1003 22.1243 95.2963 20.7307L94.2246 19.042C91.6933 20.6484 89.7254 22.8998 88.3176 25.7634L90.1124 26.6457ZM95.2938 20.7322C97.4942 19.3448 100.07 18.6364 103.056 18.6364V16.6364C99.7391 16.6364 96.7843 17.428 94.2271 19.0405L95.2938 20.7322ZM103.056 18.6364C106.042 18.6364 108.609 19.3448 110.793 20.7307L111.864 19.042C109.321 17.4279 106.373 16.6364 103.056 16.6364V18.6364ZM110.795 20.7322C113.005 22.1255 114.732 24.0846 115.975 26.6417L117.773 25.7674C116.38 22.9002 114.41 20.6472 111.862 19.0405L110.795 20.7322ZM115.977 26.6457C117.23 29.1954 117.874 32.2132 117.874 35.7273H119.874C119.874 31.9686 119.185 28.6379 117.772 25.7634L115.977 26.6457ZM117.874 35.7273C117.874 39.2098 117.231 42.2042 115.978 44.7386L117.771 45.625C119.184 42.7655 119.874 39.4569 119.874 35.7273H117.874ZM115.976 44.7427C114.733 47.2845 113.006 49.2372 110.795 50.6314L111.862 52.3231C114.409 50.7173 116.379 48.473 117.773 45.6209L115.976 44.7427ZM110.793 50.6329C108.609 52.0189 106.042 52.7273 103.056 52.7273V54.7273C106.373 54.7273 109.321 53.9357 111.864 52.3216L110.793 50.6329ZM103.056 49.9091C105.626 49.9091 107.829 49.2471 109.587 47.8513L108.343 46.2851C107.01 47.3438 105.274 47.9091 103.056 47.9091V49.9091ZM109.587 47.8513C111.287 46.5013 112.534 44.732 113.334 42.5753L111.459 41.8793C110.775 43.7225 109.734 45.1805 108.343 46.2851L109.587 47.8513ZM113.334 42.5753C114.122 40.4539 114.51 38.1683 114.51 35.7273H112.51C112.51 37.9529 112.157 40.0006 111.459 41.8793L113.334 42.5753ZM114.51 35.7273C114.51 33.2862 114.122 30.9939 113.335 28.8588L111.458 29.5502C112.157 31.4455 112.51 33.5017 112.51 35.7273H114.51ZM113.335 28.8588C112.535 26.6882 111.29 24.9042 109.592 23.5388L108.338 25.0976C109.731 26.217 110.773 27.6906 111.458 29.5502L113.335 28.8588ZM109.592 23.5388C107.834 22.1257 105.629 21.4545 103.056 21.4545V23.4545C105.271 23.4545 107.005 24.0258 108.338 25.0976L109.592 23.5388ZM103.056 21.4545C100.483 21.4545 98.278 22.1257 96.5203 23.5388L97.7734 25.0976C99.1065 24.0258 100.841 23.4545 103.056 23.4545V21.4545ZM96.5203 23.5388C94.8218 24.9042 93.5764 26.6882 92.7767 28.8588L94.6533 29.5502C95.3385 27.6906 96.3809 26.217 97.7734 25.0976L96.5203 23.5388ZM92.7767 28.8588C91.9901 30.9939 91.6014 33.2862 91.6014 35.7273H93.6014C93.6014 33.5017 93.9551 31.4455 94.6533 29.5502L92.7767 28.8588ZM91.6014 35.7273C91.6014 38.1683 91.99 40.4539 92.7775 42.5753L94.6525 41.8793C93.9551 40.0006 93.6014 37.9529 93.6014 35.7273H91.6014ZM92.7775 42.5753C93.5781 44.732 94.825 46.5013 96.5249 47.8513L97.7687 46.2851C96.3777 45.1805 95.3367 43.7225 94.6525 41.8793L92.7775 42.5753ZM96.5249 47.8513C98.2826 49.2471 100.486 49.9091 103.056 49.9091V47.9091C100.838 47.9091 99.102 47.3438 97.7687 46.2851L96.5249 47.8513ZM149.382 18.0909V17.0909H148.382V18.0909H149.382ZM154.745 18.0909H155.745V17.0909H154.745V18.0909ZM154.745 53V54H155.745V53H154.745ZM149.382 53H148.382V54H149.382V53ZM149.382 47.0909H150.382V46.0909H149.382V47.0909ZM149.018 47.0909V46.0909H148.378L148.11 46.6719L149.018 47.0909ZM145.2 51.6136L145.779 52.4288L145.784 52.4254L145.2 51.6136ZM132.836 52.0227L132.34 52.891L132.346 52.8943L132.836 52.0227ZM128.836 47.6591L127.94 48.1035L127.942 48.1063L128.836 47.6591ZM127.382 18.0909V17.0909H126.382V18.0909H127.382ZM132.745 18.0909H133.745V17.0909H132.745V18.0909ZM134.882 46L134.153 46.6849L134.157 46.6887L134.882 46ZM144.45 47.25L144.01 46.3517L144.007 46.3536L144.45 47.25ZM147.95 44.1136L147.122 43.5528L147.118 43.5589L147.95 44.1136ZM150.382 38.7273V18.0909H148.382V38.7273H150.382ZM149.382 19.0909H154.745V17.0909H149.382V19.0909ZM153.745 18.0909V53H155.745V18.0909H153.745ZM154.745 52H149.382V54H154.745V52ZM150.382 53V47.0909H148.382V53H150.382ZM149.382 46.0909H149.018V48.0909H149.382V46.0909ZM148.11 46.6719C147.371 48.274 146.216 49.6509 144.616 50.8018L145.784 52.4254C147.638 51.0916 149.029 49.4532 149.926 47.51L148.11 46.6719ZM144.621 50.7985C143.1 51.8789 141.134 52.4545 138.654 52.4545V54.4545C141.447 54.4545 143.845 53.8029 145.779 52.4288L144.621 50.7985ZM138.654 52.4545C136.623 52.4545 134.856 52.0117 133.326 51.1512L132.346 52.8943C134.21 53.9428 136.322 54.4545 138.654 54.4545V52.4545ZM133.332 51.1545C131.825 50.2933 130.622 48.9948 129.731 47.2119L127.942 48.1063C128.99 50.2022 130.453 51.8128 132.34 52.891L133.332 51.1545ZM129.732 47.2147C128.851 45.4388 128.382 43.141 128.382 40.2727H126.382C126.382 43.3438 126.882 45.9703 127.94 48.1035L129.732 47.2147ZM128.382 40.2727V18.0909H126.382V40.2727H128.382ZM127.382 19.0909H132.745V17.0909H127.382V19.0909ZM131.745 18.0909V39.9091H133.745V18.0909H131.745ZM131.745 39.9091C131.745 42.649 132.517 44.9447 134.153 46.6849L135.61 45.3151C134.398 44.025 133.745 42.2601 133.745 39.9091H131.745ZM134.157 46.6887C135.798 48.4168 137.9 49.2727 140.382 49.2727V47.2727C138.408 47.2727 136.844 46.6135 135.607 45.3113L134.157 46.6887ZM140.382 49.2727C141.891 49.2727 143.398 48.8859 144.893 48.1464L144.007 46.3536C142.744 46.9778 141.539 47.2727 140.382 47.2727V49.2727ZM144.889 48.1483C146.456 47.3817 147.753 46.2108 148.782 44.6683L147.118 43.5589C146.267 44.8346 145.231 45.7547 144.01 46.3517L144.889 48.1483ZM148.778 44.6745C149.872 43.0588 150.382 41.0529 150.382 38.7273H148.382C148.382 40.7652 147.936 42.3503 147.122 43.5528L148.778 44.6745ZM23.0097 130L22.0451 130.264L22.2464 131H23.0097V130ZM10.2824 83.4545V82.4545H8.97224L9.31779 83.7183L10.2824 83.4545ZM16.0097 83.4545L16.9783 83.206L16.7855 82.4545H16.0097V83.4545ZM25.7369 121.364L24.7683 121.612L24.9611 122.364H25.7369V121.364ZM26.1915 121.364V122.364H26.9637L27.159 121.617L26.1915 121.364ZM36.1006 83.4545V82.4545H35.3284L35.1331 83.2016L36.1006 83.4545ZM42.4642 83.4545L43.4317 83.2016L43.2364 82.4545H42.4642V83.4545ZM52.3733 121.364L51.4058 121.617L51.6011 122.364H52.3733V121.364ZM52.8278 121.364V122.364H53.6036L53.7965 121.612L52.8278 121.364ZM62.5551 83.4545V82.4545H61.7793L61.5865 83.206L62.5551 83.4545ZM68.2824 83.4545L69.247 83.7183L69.5925 82.4545H68.2824V83.4545ZM55.5551 130V131H56.3184L56.5197 130.264L55.5551 130ZM49.7369 130L48.7732 130.267L48.9762 131H49.7369V130ZM39.4642 92.9091L40.4279 92.6422L40.2249 91.9091H39.4642V92.9091ZM39.1006 92.9091V91.9091H38.3399L38.1368 92.6422L39.1006 92.9091ZM28.8278 130V131H29.5885L29.7916 130.267L28.8278 130ZM23.9742 129.736L11.247 83.1908L9.31779 83.7183L22.0451 130.264L23.9742 129.736ZM10.2824 84.4545H16.0097V82.4545H10.2824V84.4545ZM15.041 83.7031L24.7683 121.612L26.7055 121.115L16.9783 83.206L15.041 83.7031ZM25.7369 122.364H26.1915V120.364H25.7369V122.364ZM27.159 121.617L37.0681 83.7074L35.1331 83.2016L25.224 121.111L27.159 121.617ZM36.1006 84.4545H42.4642V82.4545H36.1006V84.4545ZM41.4967 83.7074L51.4058 121.617L53.3408 121.111L43.4317 83.2016L41.4967 83.7074ZM52.3733 122.364H52.8278V120.364H52.3733V122.364ZM53.7965 121.612L63.5237 83.7031L61.5865 83.206L51.8592 121.115L53.7965 121.612ZM62.5551 84.4545H68.2824V82.4545H62.5551V84.4545ZM67.3178 83.1908L54.5905 129.736L56.5197 130.264L69.247 83.7183L67.3178 83.1908ZM55.5551 129H49.7369V131H55.5551V129ZM50.7007 129.733L40.4279 92.6422L38.5005 93.176L48.7732 130.267L50.7007 129.733ZM39.4642 91.9091H39.1006V93.9091H39.4642V91.9091ZM38.1368 92.6422L27.8641 129.733L29.7916 130.267L40.0643 93.176L38.1368 92.6422ZM28.8278 129H23.0097V131H28.8278V129ZM77.5342 128.477L76.9984 129.322L77.0008 129.323L77.5342 128.477ZM71.9887 122.182L71.0903 122.621L71.0923 122.625L71.9887 122.182ZM71.9887 103.205L71.0913 102.763L71.0894 102.767L71.9887 103.205ZM77.5342 96.8864L77.0008 96.0405L76.9984 96.042L77.5342 96.8864ZM94.1024 96.8864L93.5666 97.7307L93.569 97.7322L94.1024 96.8864ZM99.6478 103.205L98.7484 103.642L98.7504 103.646L99.6478 103.205ZM99.6478 122.182L98.7514 121.739L98.7494 121.743L99.6478 122.182ZM94.1024 128.477L93.569 127.631L93.5666 127.633L94.1024 128.477ZM91.7387 124.068L91.1169 123.285L91.1169 123.285L91.7387 124.068ZM95.1706 119.227L96.1081 119.575L96.1081 119.575L95.1706 119.227ZM95.1706 106.205L96.1089 105.859L96.1089 105.859L95.1706 106.205ZM91.7387 101.318L92.3653 100.539L92.3653 100.539L91.7387 101.318ZM79.9206 101.318L79.294 100.539L79.294 100.539L79.9206 101.318ZM76.4887 106.205L75.5504 105.859L75.5504 105.859L76.4887 106.205ZM76.4887 119.227L75.5513 119.575L75.5513 119.575L76.4887 119.227ZM79.9206 124.068L80.5424 123.285L80.5424 123.285L79.9206 124.068ZM85.8297 129.727C82.8435 129.727 80.2679 129.019 78.0676 127.631L77.0008 129.323C79.558 130.936 82.5128 131.727 85.8297 131.727V129.727ZM78.07 127.633C75.8726 126.238 74.1436 124.284 72.8852 121.739L71.0923 122.625C72.5005 125.473 74.4685 127.716 76.9984 129.322L78.07 127.633ZM72.8872 121.743C71.648 119.207 71.0115 116.211 71.0115 112.727H69.0115C69.0115 116.455 69.6932 119.762 71.0903 122.621L72.8872 121.743ZM71.0115 112.727C71.0115 109.212 71.6484 106.192 72.8881 103.642L71.0894 102.767C69.6927 105.641 69.0115 108.97 69.0115 112.727H71.0115ZM72.8862 103.646C74.145 101.085 75.874 99.1243 78.07 97.7307L76.9984 96.042C74.4671 97.6484 72.4991 99.8998 71.0913 102.763L72.8862 103.646ZM78.0676 97.7322C80.2679 96.3448 82.8435 95.6364 85.8297 95.6364V93.6364C82.5128 93.6364 79.558 94.428 77.0008 96.0405L78.0676 97.7322ZM85.8297 95.6364C88.816 95.6364 91.3827 96.3448 93.5666 97.7307L94.6382 96.042C92.0948 94.4279 89.1464 93.6364 85.8297 93.6364V95.6364ZM93.569 97.7322C95.7786 99.1255 97.5056 101.085 98.7484 103.642L100.547 102.767C99.1537 99.9002 97.1837 97.6472 94.6358 96.0405L93.569 97.7322ZM98.7504 103.646C100.004 106.195 100.648 109.213 100.648 112.727H102.648C102.648 108.969 101.958 105.638 100.545 102.763L98.7504 103.646ZM100.648 112.727C100.648 116.21 100.004 119.204 98.7514 121.739L100.544 122.625C101.958 119.765 102.648 116.457 102.648 112.727H100.648ZM98.7494 121.743C97.507 124.285 95.78 126.237 93.569 127.631L94.6358 129.323C97.1823 127.717 99.1523 125.473 100.546 122.621L98.7494 121.743ZM93.5666 127.633C91.3827 129.019 88.816 129.727 85.8297 129.727V131.727C89.1464 131.727 92.0948 130.936 94.6382 129.322L93.5666 127.633ZM85.8297 126.909C88.3998 126.909 90.603 126.247 92.3606 124.851L91.1169 123.285C89.7836 124.344 88.0474 124.909 85.8297 124.909V126.909ZM92.3606 124.851C94.0606 123.501 95.3074 121.732 96.1081 119.575L94.2331 118.879C93.5488 120.723 92.5078 122.18 91.1169 123.285L92.3606 124.851ZM96.1081 119.575C96.8955 117.454 97.2842 115.168 97.2842 112.727H95.2842C95.2842 114.953 94.9305 117.001 94.2331 118.879L96.1081 119.575ZM97.2842 112.727C97.2842 110.286 96.8955 107.994 96.1089 105.859L94.2322 106.55C94.9305 108.446 95.2842 110.502 95.2842 112.727H97.2842ZM96.1089 105.859C95.3092 103.688 94.0638 101.904 92.3653 100.539L91.1122 102.098C92.5046 103.217 93.5471 104.691 94.2322 106.55L96.1089 105.859ZM92.3653 100.539C90.6075 99.1257 88.4026 98.4545 85.8297 98.4545V100.455C88.0446 100.455 89.779 101.026 91.1122 102.098L92.3653 100.539ZM85.8297 98.4545C83.2567 98.4545 81.0518 99.1257 79.294 100.539L80.5471 102.098C81.8803 101.026 83.6147 100.455 85.8297 100.455V98.4545ZM79.294 100.539C77.5956 101.904 76.3501 103.688 75.5504 105.859L77.4271 106.55C78.1122 104.691 79.1547 103.217 80.5471 102.098L79.294 100.539ZM75.5504 105.859C74.7638 107.994 74.3751 110.286 74.3751 112.727H76.3751C76.3751 110.502 76.7288 108.446 77.4271 106.55L75.5504 105.859ZM74.3751 112.727C74.3751 115.168 74.7638 117.454 75.5513 119.575L77.4262 118.879C76.7289 117.001 76.3751 114.953 76.3751 112.727H74.3751ZM75.5513 119.575C76.3519 121.732 77.5987 123.501 79.2987 124.851L80.5424 123.285C79.1515 122.18 78.1105 120.723 77.4262 118.879L75.5513 119.575ZM79.2987 124.851C81.0563 126.247 83.2595 126.909 85.8297 126.909V124.909C83.6119 124.909 81.8757 124.344 80.5424 123.285L79.2987 124.851ZM115.519 130V131H116.519V130H115.519ZM110.155 130H109.155V131H110.155V130ZM110.155 95.0909V94.0909H109.155V95.0909H110.155ZM115.337 95.0909H116.337V94.0909H115.337V95.0909ZM115.337 100.545H114.337V101.545H115.337V100.545ZM115.792 100.545V101.545H116.432L116.7 100.965L115.792 100.545ZM119.519 96.2727L120.061 97.1129L120.067 97.1094L119.519 96.2727ZM132.178 96.0909L131.698 96.9682L131.704 96.9714L132.178 96.0909ZM136.314 100.455L135.421 100.905L135.423 100.907L136.314 100.455ZM137.792 130V131H138.792V130H137.792ZM132.428 130H131.428V131H132.428V130ZM130.292 101.773L129.556 102.45L129.56 102.454L130.292 101.773ZM119.837 100.568L119.355 99.6922L119.351 99.6945L119.837 100.568ZM116.678 103.818L115.799 103.341L115.799 103.341L116.678 103.818ZM114.519 109V130H116.519V109H114.519ZM115.519 129H110.155V131H115.519V129ZM111.155 130V95.0909H109.155V130H111.155ZM110.155 96.0909H115.337V94.0909H110.155V96.0909ZM114.337 95.0909V100.545H116.337V95.0909H114.337ZM115.337 101.545H115.792V99.5455H115.337V101.545ZM116.7 100.965C117.437 99.3669 118.551 98.0876 120.061 97.1129L118.977 95.4325C117.153 96.6094 115.783 98.1786 114.884 100.126L116.7 100.965ZM120.067 97.1094C121.526 96.1545 123.47 95.6364 125.974 95.6364V93.6364C123.204 93.6364 120.846 94.2092 118.971 95.436L120.067 97.1094ZM125.974 95.6364C128.198 95.6364 130.096 96.0917 131.698 96.9682L132.658 95.2136C130.715 94.1507 128.476 93.6364 125.974 93.6364V95.6364ZM131.704 96.9714C133.28 97.8202 134.52 99.1163 135.421 100.905L137.207 100.005C136.139 97.8837 134.621 96.2707 132.652 95.2104L131.704 96.9714ZM135.423 100.907C136.315 102.665 136.792 104.951 136.792 107.818H138.792C138.792 104.746 138.283 102.123 137.206 100.002L135.423 100.907ZM136.792 107.818V130H138.792V107.818H136.792ZM137.792 129H132.428V131H137.792V129ZM133.428 130V108.182H131.428V130H133.428ZM133.428 108.182C133.428 105.268 132.668 102.859 131.024 101.091L129.56 102.454C130.763 103.747 131.428 105.611 131.428 108.182H133.428ZM131.027 101.095C129.379 99.3066 127.137 98.4545 124.428 98.4545V100.455C126.689 100.455 128.356 101.148 129.556 102.45L131.027 101.095ZM124.428 98.4545C122.567 98.4545 120.867 98.8596 119.355 99.6922L120.319 101.444C121.504 100.792 122.865 100.455 124.428 100.455V98.4545ZM119.351 99.6945C117.841 100.535 116.656 101.761 115.799 103.341L117.557 104.295C118.245 103.027 119.167 102.086 120.324 101.442L119.351 99.6945ZM115.799 103.341C114.929 104.944 114.519 106.845 114.519 109H116.519C116.519 107.095 116.881 105.54 117.557 104.295L115.799 103.341ZM155.004 83.4545L156.004 83.4681L156.017 82.4545H155.004V83.4545ZM154.549 116.909V117.909H155.536L155.549 116.923L154.549 116.909ZM149.276 116.909L148.277 116.923L148.29 117.909H149.276V116.909ZM148.822 83.4545V82.4545H147.808L147.822 83.4681L148.822 83.4545ZM149.026 129.159L149.734 128.452L149.734 128.452L149.026 129.159ZM154.799 123.386L155.506 122.679L155.506 122.679L154.799 123.386ZM155.436 128.318L154.582 127.798L154.577 127.805L154.573 127.813L155.436 128.318ZM153.958 129.818L154.473 130.676L154.479 130.672L153.958 129.818ZM154.004 83.441L153.549 116.896L155.549 116.923L156.004 83.4681L154.004 83.441ZM154.549 115.909H149.276V117.909H154.549V115.909ZM150.276 116.896L149.822 83.441L147.822 83.4681L148.277 116.923L150.276 116.896ZM148.822 84.4545H155.004V82.4545H148.822V84.4545ZM151.913 129.364C151.061 129.364 150.352 129.07 149.734 128.452L148.319 129.866C149.307 130.854 150.523 131.364 151.913 131.364V129.364ZM149.734 128.452C149.115 127.834 148.822 127.125 148.822 126.273H146.822C146.822 127.663 147.332 128.878 148.319 129.866L149.734 128.452ZM148.822 126.273C148.822 125.421 149.115 124.712 149.734 124.093L148.319 122.679C147.332 123.667 146.822 124.882 146.822 126.273H148.822ZM149.734 124.093C150.352 123.475 151.061 123.182 151.913 123.182V121.182C150.523 121.182 149.307 121.691 148.319 122.679L149.734 124.093ZM151.913 123.182C152.765 123.182 153.474 123.475 154.092 124.093L155.506 122.679C154.518 121.691 153.303 121.182 151.913 121.182V123.182ZM154.092 124.093C154.71 124.712 155.004 125.421 155.004 126.273H157.004C157.004 124.882 156.494 123.667 155.506 122.679L154.092 124.093ZM155.004 126.273C155.004 126.835 154.863 127.337 154.582 127.798L156.289 128.839C156.766 128.057 157.004 127.195 157.004 126.273H155.004ZM154.573 127.813C154.293 128.29 153.919 128.671 153.438 128.964L154.479 130.672C155.24 130.208 155.85 129.589 156.299 128.823L154.573 127.813ZM153.444 128.961C153.004 129.224 152.503 129.364 151.913 129.364V131.364C152.838 131.364 153.7 131.139 154.473 130.676L153.444 128.961ZM173.136 83.4545L174.136 83.4681L174.15 82.4545H173.136V83.4545ZM172.682 116.909V117.909H173.668L173.682 116.923L172.682 116.909ZM167.409 116.909L166.409 116.923L166.422 117.909H167.409V116.909ZM166.954 83.4545V82.4545H165.941L165.955 83.4681L166.954 83.4545ZM167.159 129.159L167.866 128.452L167.866 128.452L167.159 129.159ZM172.932 123.386L173.639 122.679L173.639 122.679L172.932 123.386ZM173.568 128.318L172.714 127.798L172.71 127.805L172.705 127.813L173.568 128.318ZM172.091 129.818L172.605 130.676L172.611 130.672L172.091 129.818ZM172.136 83.441L171.682 116.896L173.682 116.923L174.136 83.4681L172.136 83.441ZM172.682 115.909H167.409V117.909H172.682V115.909ZM168.409 116.896L167.954 83.441L165.955 83.4681L166.409 116.923L168.409 116.896ZM166.954 84.4545H173.136V82.4545H166.954V84.4545ZM170.045 129.364C169.193 129.364 168.484 129.07 167.866 128.452L166.452 129.866C167.44 130.854 168.655 131.364 170.045 131.364V129.364ZM167.866 128.452C167.248 127.834 166.954 127.125 166.954 126.273H164.954C164.954 127.663 165.464 128.878 166.452 129.866L167.866 128.452ZM166.954 126.273C166.954 125.421 167.248 124.712 167.866 124.093L166.452 122.679C165.464 123.667 164.954 124.882 164.954 126.273H166.954ZM167.866 124.093C168.484 123.475 169.193 123.182 170.045 123.182V121.182C168.655 121.182 167.44 121.691 166.452 122.679L167.866 124.093ZM170.045 123.182C170.898 123.182 171.606 123.475 172.225 124.093L173.639 122.679C172.651 121.691 171.436 121.182 170.045 121.182V123.182ZM172.225 124.093C172.843 124.712 173.136 125.421 173.136 126.273H175.136C175.136 124.882 174.627 123.667 173.639 122.679L172.225 124.093ZM173.136 126.273C173.136 126.835 172.995 127.337 172.714 127.798L174.422 128.839C174.898 128.057 175.136 127.195 175.136 126.273H173.136ZM172.705 127.813C172.426 128.29 172.052 128.671 171.57 128.964L172.611 130.672C173.372 130.208 173.983 129.589 174.431 128.823L172.705 127.813ZM171.576 128.961C171.137 129.224 170.635 129.364 170.045 129.364V131.364C170.971 131.364 171.833 131.139 172.605 130.676L171.576 128.961ZM191.269 83.4545L192.269 83.4681L192.282 82.4545H191.269V83.4545ZM190.814 116.909V117.909H191.801L191.814 116.923L190.814 116.909ZM185.541 116.909L184.542 116.923L184.555 117.909H185.541V116.909ZM185.087 83.4545V82.4545H184.073L184.087 83.4681L185.087 83.4545ZM185.291 129.159L185.999 128.452L185.999 128.452L185.291 129.159ZM191.064 123.386L191.771 122.679L191.771 122.679L191.064 123.386ZM191.701 128.318L190.847 127.798L190.842 127.805L190.838 127.813L191.701 128.318ZM190.223 129.818L190.738 130.676L190.744 130.672L190.223 129.818ZM190.269 83.441L189.814 116.896L191.814 116.923L192.269 83.4681L190.269 83.441ZM190.814 115.909H185.541V117.909H190.814V115.909ZM186.541 116.896L186.087 83.441L184.087 83.4681L184.542 116.923L186.541 116.896ZM185.087 84.4545H191.269V82.4545H185.087V84.4545ZM188.178 129.364C187.326 129.364 186.617 129.07 185.999 128.452L184.584 129.866C185.572 130.854 186.788 131.364 188.178 131.364V129.364ZM185.999 128.452C185.38 127.834 185.087 127.125 185.087 126.273H183.087C183.087 127.663 183.597 128.878 184.584 129.866L185.999 128.452ZM185.087 126.273C185.087 125.421 185.38 124.712 185.999 124.093L184.584 122.679C183.597 123.667 183.087 124.882 183.087 126.273H185.087ZM185.999 124.093C186.617 123.475 187.326 123.182 188.178 123.182V121.182C186.788 121.182 185.572 121.691 184.584 122.679L185.999 124.093ZM188.178 123.182C189.03 123.182 189.739 123.475 190.357 124.093L191.771 122.679C190.783 121.691 189.568 121.182 188.178 121.182V123.182ZM190.357 124.093C190.975 124.712 191.269 125.421 191.269 126.273H193.269C193.269 124.882 192.759 123.667 191.771 122.679L190.357 124.093ZM191.269 126.273C191.269 126.835 191.128 127.337 190.847 127.798L192.554 128.839C193.031 128.057 193.269 127.195 193.269 126.273H191.269ZM190.838 127.813C190.558 128.29 190.184 128.671 189.703 128.964L190.744 130.672C191.505 130.208 192.115 129.589 192.564 128.823L190.838 127.813ZM189.709 128.961C189.269 129.224 188.768 129.364 188.178 129.364V131.364C189.103 131.364 189.965 131.139 190.738 130.676L189.709 128.961Z" fill="#00EDFC"/>
</g>
<defs>
<filter id="filter0_d_2_3" x="0.282379" y="0.454544" width="201.986" height="144.273" filterUnits="userSpaceOnUse" color-interpolation-filters="sRGB">
<feFlood flood-opacity="0" result="BackgroundImageFix"/>
<feColorMatrix in="SourceAlpha" type="matrix" values="0 0 0 0 0 0 0 0 0 0 0 0 0 0 0 0 0 0 127 0" result="hardAlpha"/>
<feOffset dy="4"/>
<feGaussianBlur stdDeviation="5"/>
<feComposite in2="hardAlpha" operator="out"/>
<feColorMatrix type="matrix" values="0 0 0 0 0 0 0 0 0 0 0 0 0 0 0 0 0 0 0.25 0"/>
<feBlend mode="normal" in2="BackgroundImageFix" result="effect1_dropShadow_2_3"/>
<feBlend mode="normal" in="SourceGraphic" in2="effect1_dropShadow_2_3" result="shape"/>
</filter>
</defs>
</svg>
